<?xml version="1.0" encoding="utf-8"?>
<!-- Generator: Adobe Illustrator 20.1.0, SVG Export Plug-In . SVG Version: 6.00 Build 0)  -->
<svg version="1.1" id="Layer_2" xmlns="http://www.w3.org/2000/svg" xmlns:xlink="http://www.w3.org/1999/xlink" x="0px" y="0px"
	 viewBox="0 0 845.9 442" style="enable-background:new 0 0 845.9 442;" xml:space="preserve">
<path d="M232,387.8c0,30-24.3,54.3-54.3,54.3s-54.3-24.3-54.3-54.3s24.3-54.3,54.3-54.3S232,357.8,232,387.8L232,387.8z
	 M204.8,387.8c0-15-12.2-27.1-27.2-27.1c-15,0-27.2,12.2-27.2,27.1s12.2,27.2,27.2,27.2C192.7,415,204.8,402.8,204.8,387.8
	L204.8,387.8z M130.9,333.5H9.2c-4.8,0-8.7,3.9-8.7,8.7v26.5c0,4.8,3.9,8.7,8.7,8.7h97.5C109.3,360,118.1,344.5,130.9,333.5
	L130.9,333.5z M749.7,387.8c0,30-24.3,54.3-54.3,54.3s-54.3-24.3-54.3-54.3s24.3-54.3,54.3-54.3S749.7,357.8,749.7,387.8
	L749.7,387.8z M722.5,387.8c0-15-12.2-27.1-27.2-27.1c-15,0-27.2,12.2-27.2,27.1s12.2,27.2,27.2,27.2
	C710.4,415,722.5,402.8,722.5,387.8L722.5,387.8z M845.7,342.2v26.5c0,4.8-3.9,8.7-8.7,8.7h-70.7c-5.1-34.7-34.9-61.4-70.9-61.4
	c-36,0-65.9,26.7-70.9,61.4H248.6c-2.5-17.5-11.4-32.9-24.2-43.9h368.5V83.9c0-9.6,7.8-17.5,17.5-17.5h82.4
	c23.2,0,44.9,11.5,57.9,30.8l53.1,78.7c7.8,11.5,12,25.1,12,39.1v118.6h21.2C841.8,333.5,845.7,337.4,845.7,342.2L845.7,342.2z
	 M757.1,177.9l-42.5-60.4c-1.6-2.3-4.3-3.7-7.1-3.7h-66.3c-4.8,0-8.7,3.9-8.7,8.7v60.4c0,4.8,3.9,8.7,8.7,8.7H750
	C757.1,191.6,761.2,183.6,757.1,177.9L757.1,177.9z M757.1,177.9"/>
<path d="M307.1,303.3V180c0-6.8,5.6-12.4,12.4-12.4h233.8c6.8,0,12.4,5.6,12.4,12.4v123.2c0,2.3-1.8,4.1-4.1,4.1H311.2
	C308.9,307.4,307.1,305.5,307.1,303.3L307.1,303.3z"/>
<path d="M21.2,303.3V180c0-6.8,5.6-12.4,12.4-12.4h233.8c6.8,0,12.4,5.6,12.4,12.4v123.2c0,2.3-1.8,4.1-4.1,4.1H25.4
	C23.1,307.4,21.2,305.5,21.2,303.3L21.2,303.3z"/>
<path d="M23,136.7V13.5c0-6.8,3.5-12.4,7.8-12.4h146.1c4.3,0,7.7,5.6,7.7,12.4v123.2c0,2.3-1.2,4.1-2.6,4.1H25.6
	C24.2,140.9,23,139,23,136.7L23,136.7z"/>
<path d="M213.5,136.7V13.5c0-6.8,3.5-12.4,7.8-12.4h146.1c4.3,0,7.7,5.6,7.7,12.4v123.2c0,2.3-1.2,4.1-2.6,4.1H216.1
	C214.7,140.9,213.5,139,213.5,136.7L213.5,136.7z"/>
<path d="M404,136.7V13.5c0-6.8,3.5-12.4,7.8-12.4h146.1c4.3,0,7.7,5.6,7.7,12.4v123.2c0,2.3-1.2,4.1-2.6,4.1H406.6
	C405.2,140.9,404,139,404,136.7L404,136.7z"/>
</svg>
