<?xml version="1.0" encoding="utf-8"?>
<!-- Generator: Adobe Illustrator 19.1.0, SVG Export Plug-In . SVG Version: 6.00 Build 0)  -->
<svg version="1.1" id="Capa_1" xmlns="http://www.w3.org/2000/svg" xmlns:xlink="http://www.w3.org/1999/xlink" x="0px" y="0px"
	 viewBox="0 0 160 160" style="enable-background:new 0 0 160 160;" xml:space="preserve">
<style type="text/css">
	.st0{fill:#4F5D61;}
</style>
<g>
	<path class="st0" d="M112.5,5C88,5,68.1,24.9,68.1,49.4c0,24.5,44.4,87.9,44.4,87.9s44.4-63.4,44.4-87.9C156.9,24.9,137,5,112.5,5z
		 M112.5,85.5c-19.3,0-35-15.7-35-35s15.7-35,35-35c19.3,0,35,15.7,35,35S131.8,85.5,112.5,85.5z"/>
	<g>
		<g>
			<path class="st0" d="M132.7,59.8c-2.8,0-5,2.2-5,5c0,2.8,2.2,5,5,5c2.8,0,5-2.2,5-5C137.7,62.1,135.4,59.8,132.7,59.8z
				 M132.7,66.3c-0.8,0-1.5-0.7-1.5-1.5s0.7-1.5,1.5-1.5s1.5,0.7,1.5,1.5S133.5,66.3,132.7,66.3z"/>
			<path class="st0" d="M132.2,39h-8.6c-0.6,0-1.2,0.5-1.2,1.2v22.9c0,0.6,0.5,1.2,1.2,1.2h1.2c0.6,0,1.1-0.4,1.2-1
				c0.5-3.5,3.3-5.7,6.7-5.7s6.2,2.2,6.7,5.7c0.1,0.6,0.6,1,1.2,1h1.2c0.6,0,1.2-0.5,1.2-1.2V51.7c0-0.3-0.1-0.5-0.3-0.8l-9.6-11.5
				C132.9,39.2,132.6,39,132.2,39z M124.8,48.4v-5.9c0-0.6,0.5-1.2,1.2-1.2h5.2c0.3,0,0.7,0.2,0.9,0.4l4.9,5.9
				c0.6,0.8,0.1,1.9-0.9,1.9h-10.1C125.3,49.6,124.8,49.1,124.8,48.4z"/>
			<path class="st0" d="M85.4,64.3h3c0.6,0,1.1-0.4,1.2-1c0.5-3.5,3.3-5.7,6.7-5.7s6.2,2.2,6.7,5.7c0.1,0.6,0.6,1,1.2,1h14.8
				c0.6,0,1.2-0.5,1.2-1.2V33.8c0-0.6-0.5-1.2-1.2-1.2H85.4c-0.6,0-1.2,0.5-1.2,1.2v29.4C84.2,63.8,84.7,64.3,85.4,64.3z"/>
			<path class="st0" d="M96.3,59.8c-2.8,0-5,2.2-5,5c0,2.8,2.2,5,5,5c2.8,0,5-2.2,5-5C101.2,62.1,99,59.8,96.3,59.8z M96.3,66.3
				c-0.8,0-1.5-0.7-1.5-1.5s0.7-1.5,1.5-1.5s1.5,0.7,1.5,1.5S97.1,66.3,96.3,66.3z"/>
		</g>
	</g>
	<path class="st0" d="M9.4,155l18.1-36.3h107l20.6,36.3H9.4z M140.4,146.4l-10.9-19.2H32.8l-9.5,19.2H140.4z"/>
	
		<rect x="52.7" y="121.4" transform="matrix(0.9781 0.2081 -0.2081 0.9781 29.6367 -8.634)" class="st0" width="6.3" height="30.2"/>
	<polygon class="st0" points="96,150.7 89.9,149.4 92.9,135.2 136,130.6 136.7,136.8 98.1,141 	"/>
	<g>
		<path class="st0" d="M16.7,56.6L27,46.3l1.6,1.6L18.3,58.3L16.7,56.6z M40.1,54.1L56,38.2l-5.5-5.5L34.6,48.6L40.1,54.1z
			 M3.1,80.2l5.5,5.5l15.9-15.9L19,64.3L3.1,80.2z M33.1,66.5l1.4,1.4c-3.7,5-4.3,11-1.1,14.2c1.8,1.8,4.4,2.4,7.3,2v-1.7
			c-2.3,0.5-4.3,0.2-5.3-0.8c-2.1-2.1-0.1-7.5,4.5-12.1c4.6-4.6,10-6.6,12.1-4.5c1,1,1.2,2.8,0.9,4.9h1.9c0.4-2.8-0.2-5.4-2-7.1
			c-3.3-3.3-9.4-2.6-14.5,1.3l-1.3-1.3l4.8-4.8L30.8,47L17.4,60.5l10.9,10.9L33.1,66.5z M59.9,89.1c-4.8,4.8-11.1,7.2-17.5,7.2v3.3
			c7.5,0,14.5-2.9,19.8-8.2c5.3-5.3,8.2-12.3,8.2-19.8h-3.3C67.1,78,64.7,84.3,59.9,89.1z M56.8,86c4-4,6-9.2,6-14.4h-3.3
			c0,4.4-1.7,8.7-5,12.1c-3.3,3.3-7.7,5-12.1,5V92C47.6,92,52.8,90,56.8,86z M42.4,80.7l0,3.3c3.2,0,6.3-1.2,8.7-3.6
			c2.4-2.4,3.6-5.6,3.6-8.7l-3.3,0c0,2.3-0.9,4.6-2.6,6.4C47,79.8,44.7,80.7,42.4,80.7z M46.3,71.7h-3.9v3.9c1,0,2-0.4,2.8-1.1
			C45.9,73.7,46.3,72.7,46.3,71.7z"/>
	</g>
</g>
</svg>
