<?xml version="1.0" encoding="iso-8859-1"?>
<!-- Generator: Adobe Illustrator 18.0.0, SVG Export Plug-In . SVG Version: 6.00 Build 0)  -->
<!DOCTYPE svg PUBLIC "-//W3C//DTD SVG 1.1//EN" "http://www.w3.org/Graphics/SVG/1.1/DTD/svg11.dtd">
<svg version="1.1" id="Calque_1" xmlns="http://www.w3.org/2000/svg" xmlns:xlink="http://www.w3.org/1999/xlink" x="0px" y="0px"
	 viewBox="0 0 256.437 217.893" style="enable-background:new 0 0 256.437 217.893;" xml:space="preserve">
<g>
	<g>
		<path style="fill:#3CB5C9;" d="M230.846,37.932c-11.78-11.78-27.43-18.27-44.09-18.27c-16.65,0-32.31,6.49-44.08,18.27
			c-11.78,11.77-18.26,27.43-18.26,44.08c0,0.97,0.02,1.94,0.07,2.91h10.78c0.86-1.47,1.92-2.79,3.19-3.9
			c1.21-1.23-0.09-4.9-5.7-6.76c0.98-6.93,3.27-13.55,6.75-19.55c6.71,1.07,14.34-6.46,16.22-12.07c2.43-1.83,1-3.27-1.52-4.42
			c9.36-6.98,20.67-10.76,32.55-10.76c8.29,0,16.29,1.83,23.54,5.31c-0.28,4.38-5.7,3.79-8.63,0.41c-1.41-0.13-3.27,0.32-5.2,1.15
			c-5.82,2.49-12.41,8.26-10.03,10.93c4.23-2.86,9.02-1.82,5.64,3.82c-4.67,7.32-8.68-2.74-13.46,0.23c2.32,2.02-6.25,5.02-8.8,5.16
			c-5.18-0.84,4.42,3.78,0.77,5.37c-5.66,0.93-3.81,3.01-0.8,3.45c0.1,0.02,0.21,0.03,0.32,0.04s0.23,0.02,0.35,0.03
			c0.03,0.01,0.06,0.01,0.09,0.01c0.12,0.01,0.25,0.01,0.38,0.01c2.41,0,5.04-1.12,5.14-4.58c9.86-5.44,10.19,11.8,20.45,9.41
			c-2.82-4.13,0.59-9,5.89-9.62c9.59,2.66-6.36,7.33,0.67,8.57c-0.75,3.91-9.82,5.01-13.15,8.49c-8.22-0.23-12.53-9.43-19.25-10.47
			c-0.12-0.02-0.24-0.04-0.37-0.05c-0.11-0.02-0.23-0.03-0.35-0.03c-0.08,0-0.15-0.01-0.23-0.01c-1.8-0.09-3.77,0.44-6.03,1.87
			c-7.17,1.53-11.45,10.82-10.45,17.96h25v17.52c3.56,6.55,2.82,17.54,5.33,24.48c3.26,3.03,10.76,8.92,15.11,8.09
			c0.12-0.02,0.25-0.05,0.37-0.09c1.82-0.52,3-2.38,2.94-6.36c-1.52-9.17,10.21-26.87,14.63-34.86c6.92-11.44-6.97,1.21-10.13-4.2
			c-2.04-12,10-1.36,15.36-4.97c5.09,3.13,13.19-2.5,14.19,6.31c0.97,5.41,2.54,4.51,4.18,2.1c-2.11,10.4-7.21,19.97-14.89,27.65
			c-7.33,7.33-16.37,12.3-26.22,14.57c-0.12,0.03-0.25,0.06-0.38,0.09c-3.89,0.87-7.9,1.31-11.98,1.31c-2.88,0-5.72-0.22-8.51-0.66
			v7.88c2.79,0.39,5.64,0.58,8.51,0.58c16.66,0,32.31-6.49,44.09-18.26c11.78-11.78,18.26-27.44,18.26-44.09
			C249.106,65.362,242.626,49.702,230.846,37.932z"/>
		<path style="fill:none;" d="M240.226,92.942c-2.11,10.4-7.21,19.97-14.89,27.65c-7.33,7.33-16.37,12.3-26.22,14.57l-0.06-0.24
			c1.82-0.52,3-2.38,2.94-6.36c-1.52-9.17,10.21-26.87,14.63-34.86c6.92-11.44-6.97,1.21-10.13-4.2c-2.04-12,10-1.36,15.36-4.97
			c5.09,3.13,13.19-2.5,14.19,6.31C237.016,96.252,238.586,95.352,240.226,92.942z"/>
	</g>
	<g>
		<g>
			<path style="fill:none;" d="M186.756,27.462c-11.88,0-23.19,3.78-32.55,10.76c2.52,1.15,3.95,2.59,1.52,4.42
				c-1.88,5.61-9.51,13.14-16.22,12.07c-3.48,6-5.77,12.62-6.75,19.55c5.61,1.86,6.91,5.53,5.7,6.76c-1.27,1.11-2.33,2.43-3.19,3.9
				h-64.69v3.32l1.28-0.31h1.72v-0.01h101.67v47.98h3v-50.98h-25c-1-7.14,3.28-16.43,10.45-17.96c2.26-1.43,4.23-1.96,6.03-1.87
				c0.08,0,0.15,0.01,0.23,0.01c0.12,0,0.24,0.01,0.35,0.03l0.24-1.76c-0.03,0-0.06,0-0.09-0.01c-0.12-0.01-0.24-0.02-0.35-0.03
				s-0.22-0.02-0.32-0.04c-3.01-0.44-4.86-2.52,0.8-3.45c3.65-1.59-5.95-6.21-0.77-5.37c2.55-0.14,11.12-3.14,8.8-5.16
				c4.78-2.97,8.79,7.09,13.46-0.23c3.38-5.64-1.41-6.68-5.64-3.82c-2.38-2.67,4.21-8.44,10.03-10.93c1.93-0.83,3.79-1.28,5.2-1.15
				c2.93,3.38,8.35,3.97,8.63-0.41C203.046,29.292,195.046,27.462,186.756,27.462z"/>
			<path style="fill:none;" d="M71.856,87.932l-1.28,0.31l-2.42,0.59c-3.42,0.82-11.36,3.3-11.36,8.54v13.04h5.42v0.59h8.36v37.66h3
				v-60.73H71.856z M68.856,108.002h-9.06c0,0,0-7.19,0-10.63c0-3.44,9.06-5.63,9.06-5.63V108.002z"/>
			<path style="fill:none;" d="M175.246,135.902v12.76H70.576v1.35h-10.9c0.51-1.78,1.22-3.79,2.1-5.23l0.44-0.72v-33.06h-5.42
				v-0.59h-31.33c-6.71,0-12.17,6.02-12.17,13.42v3h11.16l0.52-0.87c0.75-0.29,3.15-0.97,9.37-1.16c-0.23,1.21-0.58,2.65-1.13,4.08
				c-2.38,6.15-6.04,6.29-7.24,6.33c-14.58,0.55-19.77,8.15-19.77,15.09v9.66h3c0.77,0,1.5-0.01,2.2-0.03
				c0.57-0.01,1.11-0.03,1.61-0.03c0.43,0,0.76,0.02,1.03,0.03c-0.42,0.06-1.06,0.11-2.03,0.11c-0.44,0-0.88-0.01-1.33-0.02
				c-0.49,0-0.98-0.01-1.48-0.01h-3v18.29h25.09l0.28-2.69c0.01-0.09,1.09-9.6,7.01-9.6h22.74v9.69h67.44l0.61-2.2
				c0.19-0.61,2.17-6.24,11.02-6.24h1.1c8.05,0,10.61,6.44,10.63,6.51l0.74,1.93h16.63v-9.69h8.75v-30.11H175.246z M175.246,163.012
				h-8.75v9.69h-11.56c0,0-3.23-8.44-13.44-8.44h-1.1c-11.56,0-13.91,8.44-13.91,8.44h-62.16v-9.69h-8.44c0,0-8.54,0-17.3,0
				c-8.75,0-10,12.29-10,12.29H9.206v-12.29c0.95,0,1.9,0.03,2.81,0.03c3.03,0,5.53-0.33,5.53-3.16c0-2.6-1.75-2.98-4.53-2.98
				c-1.12,0-2.4,0.06-3.81,0.06v-6.66c0-6.67,5.84-11.67,16.88-12.09c11.04-0.42,11.67-16.46,11.67-16.46c-13.75,0-15,2.08-15,2.08
				h-6.46c0-5.42,3.96-10.42,9.17-10.42s33.75,0,33.75,0v29.8c-2.29,3.75-3.33,9.8-3.33,9.8h119.36V163.012z"/>
			<rect x="73.576" y="87.922" style="fill:#253065;" width="101.67" height="60.74"/>
		</g>
		<g>
			<path style="fill:#253065;" d="M68.856,91.742v16.26h-9.06c0,0,0-7.19,0-10.63C59.796,93.932,68.856,91.742,68.856,91.742z"/>
		</g>
		<path style="fill:#253065;" d="M46.506,168.322c-6.21,0-11.25,5.04-11.25,11.25c0,6.22,5.04,11.26,11.25,11.26
			c6.22,0,11.25-5.04,11.25-11.26C57.756,173.362,52.726,168.322,46.506,168.322z M46.506,185.832c-3.45,0-6.25-2.81-6.25-6.26
			c0-3.44,2.8-6.25,6.25-6.25c3.45,0,6.25,2.81,6.25,6.25C52.756,183.022,49.956,185.832,46.506,185.832z"/>
		<path style="fill:#253065;" d="M141.496,168.322c-6.22,0-11.26,5.04-11.26,11.25c0,6.22,5.04,11.26,11.26,11.26
			c6.21,0,11.25-5.04,11.25-11.26C152.746,173.362,147.706,168.322,141.496,168.322z M141.496,185.832c-3.45,0-6.26-2.81-6.26-6.26
			c0-3.44,2.81-6.25,6.26-6.25c3.44,0,6.25,2.81,6.25,6.25C147.746,183.022,144.936,185.832,141.496,185.832z"/>
		<g>
			<path style="fill:#253065;" d="M175.246,153.012v10h-8.75v9.69h-11.56c0,0-3.23-8.44-13.44-8.44h-1.1
				c-11.56,0-13.91,8.44-13.91,8.44h-62.16v-9.69h-8.44c0,0-8.54,0-17.3,0c-8.75,0-10,12.29-10,12.29H9.206v-12.29
				c0.95,0,1.9,0.03,2.81,0.03c3.03,0,5.53-0.33,5.53-3.16c0-2.6-1.75-2.98-4.53-2.98c-1.12,0-2.4,0.06-3.81,0.06v-6.66
				c0-6.67,5.84-11.67,16.88-12.09c11.04-0.42,11.67-16.46,11.67-16.46c-13.75,0-15,2.08-15,2.08h-6.46
				c0-5.42,3.96-10.42,9.17-10.42s33.75,0,33.75,0v29.8c-2.29,3.75-3.33,9.8-3.33,9.8H175.246z"/>
		</g>
	</g>
</g>
</svg>
