<?xml version="1.0" encoding="iso-8859-1"?>
<!-- Generator: Adobe Illustrator 18.0.0, SVG Export Plug-In . SVG Version: 6.00 Build 0)  -->
<!DOCTYPE svg PUBLIC "-//W3C//DTD SVG 1.1//EN" "http://www.w3.org/Graphics/SVG/1.1/DTD/svg11.dtd">
<svg version="1.1" id="Calque_1" xmlns="http://www.w3.org/2000/svg" xmlns:xlink="http://www.w3.org/1999/xlink" x="0px" y="0px"
	 viewBox="0 0 229.226 217.893" style="enable-background:new 0 0 229.226 217.893;" xml:space="preserve">
<g>
	<rect x="59.313" y="118.878" style="fill:#253065;" width="123.615" height="10.002"/>
	<path style="fill:#253065;" d="M72.285,57.615c0,0-9.065,2.188-9.065,5.626s0,10.627,0,10.627h9.065V57.615z"/>
	<path style="fill:#253065;" d="M59.313,128.88v-10.002c0,0,1.042-6.043,3.334-9.794V79.286c0,0-28.548,0-33.757,0
		s-9.169,5.001-9.169,10.419h6.46c0,0,1.25-2.084,15.003-2.084c0,0-0.625,16.045-11.669,16.462
		c-11.044,0.417-16.879,5.418-16.879,12.086l0,6.668c4.91,0,8.335-0.732,8.335,2.916c0,3.674-4.207,3.127-8.335,3.127l0,12.294
		h19.379c0,0,1.25-12.294,10.002-12.294S59.313,128.88,59.313,128.88z"/>
	<g>
		<path style="fill:#253065;" d="M49.936,139.194c3.448,0,6.252,2.805,6.252,6.252s-2.805,6.253-6.252,6.253
			s-6.252-2.805-6.252-6.253S46.488,139.194,49.936,139.194 M49.936,134.194c-6.215,0-11.252,5.038-11.252,11.252
			s5.038,11.253,11.252,11.253s11.252-5.038,11.252-11.253S56.151,134.194,49.936,134.194L49.936,134.194z"/>
	</g>
	<g>
		<path style="fill:#253065;" d="M149.171,139.194c3.448,0,6.252,2.805,6.252,6.252s-2.805,6.253-6.252,6.253
			s-6.252-2.805-6.252-6.253S145.723,139.194,149.171,139.194 M149.171,134.194c-6.215,0-11.252,5.038-11.252,11.252
			s5.038,11.253,11.252,11.253s11.252-5.038,11.252-11.253S155.385,134.194,149.171,134.194L149.171,134.194z"/>
	</g>
	<path style="fill:#253065;" d="M134.167,138.57c0,0,2.344-8.439,13.909-8.439c5.366,0-11.096,0,1.094,0
		c10.211,0,13.441,8.439,13.441,8.439h11.565v-9.69H67.752v9.69H134.167z"/>
	<polygon style="fill:#253065;" points="182.928,128.88 222.363,128.88 222.363,127.659 182.928,125.222 	"/>
	<rect x="187.613" y="103.816" style="fill:#3CB5C9;" width="29.25" height="20.063"/>
	<rect x="77.007" y="84.119" style="fill:#3CB5C9;" width="53.088" height="30.411"/>
	<rect x="130.095" y="84.119" style="fill:#3CB5C9;" width="53.088" height="30.411"/>
	<rect x="130.095" y="53.795" style="fill:#3CB5C9;" width="26.674" height="30.411"/>
	<rect x="77.007" y="53.795" style="fill:#3CB5C9;" width="53.088" height="30.411"/>
</g>
</svg>
