<?xml version="1.0" encoding="UTF-8"?> <!-- Generator: Adobe Illustrator 21.1.0, SVG Export Plug-In . SVG Version: 6.00 Build 0) --> <svg xmlns="http://www.w3.org/2000/svg" xmlns:xlink="http://www.w3.org/1999/xlink" id="Layer_1" x="0px" y="0px" viewBox="0 0 48 48" xml:space="preserve"> <g> <g> <g> <path fill="#00ABE2" d="M47,38H16.3c-0.6,0-1-0.4-1-1s0.4-1,1-1H47c0.6,0,1,0.4,1,1S47.6,38,47,38z"></path> </g> <g> <g> <circle fill="#00ABE2" cx="41.6" cy="44.7" r="2.3"></circle> <path fill="#00ABE2" d="M41.6,48c-1.8,0-3.3-1.5-3.3-3.3s1.5-3.3,3.3-3.3c1.8,0,3.3,1.5,3.3,3.3S43.5,48,41.6,48z M41.6,43.4 c-0.7,0-1.3,0.6-1.3,1.3s0.6,1.3,1.3,1.3s1.3-0.6,1.3-1.3S42.4,43.4,41.6,43.4z"></path> </g> <g> <circle fill="#00ABE2" cx="19" cy="45" r="2"></circle> <path fill="#00ABE2" d="M19,48c-1.7,0-3-1.3-3-3s1.3-3,3-3c1.7,0,3,1.3,3,3S20.7,48,19,48z M19,44c-0.6,0-1,0.4-1,1s0.4,1,1,1 c0.6,0,1-0.4,1-1S19.6,44,19,44z"></path> </g> </g> <g> <path fill="#00ABE2" d="M16.3,38c-0.5,0-0.9-0.4-1-0.9l-4.8-33C10.3,3,9.2,2,8,2H1C0.4,2,0,1.6,0,1s0.4-1,1-1h7 c2.2,0,4.2,1.7,4.5,3.9l4.8,33c0.1,0.5-0.3,1.1-0.8,1.1C16.4,38,16.3,38,16.3,38z"></path> </g> </g> <g> <path fill="#00ABE2" d="M33,32H21c-0.6,0-1-0.4-1-1V9c0-0.6,0.4-1,1-1h12c0.6,0,1,0.4,1,1v22C34,31.6,33.6,32,33,32z M22,30h10V10 H22V30z"></path> </g> <g> <path fill="#00ABE2" d="M45,32H33c-0.6,0-1-0.4-1-1v-8c0-0.6,0.4-1,1-1h12c0.6,0,1,0.4,1,1v8C46,31.6,45.6,32,45,32z M34,30h10v-6 H34V30z"></path> </g> <g> <path fill="#00ABE2" d="M45,32H33c-0.6,0-1-0.4-1-1v-8c0-0.6,0.4-1,1-1h12c0.6,0,1,0.4,1,1v8C46,31.6,45.6,32,45,32z M34,30h10v-6 H34V30z"></path> </g> <g> <path fill="#00ABE2" d="M41,24h-8c-0.6,0-1-0.4-1-1v-8c0-0.6,0.4-1,1-1h8c0.6,0,1,0.4,1,1v8C42,23.6,41.6,24,41,24z M34,22h6v-6 h-6V22z"></path> </g> <g> <path fill="#00ABE2" d="M41,24h-8c-0.6,0-1-0.4-1-1v-8c0-0.6,0.4-1,1-1h8c0.6,0,1,0.4,1,1v8C42,23.6,41.6,24,41,24z M34,22h6v-6 h-6V22z"></path> </g> </g> </svg> 