<?xml version="1.0" encoding="utf-8"?>
<!-- Generator: Adobe Illustrator 19.0.0, SVG Export Plug-In . SVG Version: 6.00 Build 0)  -->
<svg version="1.1" id="Capa_1" xmlns="http://www.w3.org/2000/svg" xmlns:xlink="http://www.w3.org/1999/xlink" x="0px" y="0px"
	 viewBox="0 0 1984.4 292.5" style="enable-background:new 0 0 1984.4 292.5;" xml:space="preserve">
<style type="text/css">
	.st0{fill:#FFFFFF;}
</style>
<g id="XMLID_90_">
	<path id="XMLID_96_" class="st0" d="M214.9,184.7c-4.1,0-7.7,1.5-10.7,4.5c-3,3-4.5,6.6-4.5,10.7c0,4.1,1.5,7.7,4.5,10.7
		c3,3,6.6,4.5,10.7,4.5c4.1,0,7.7-1.5,10.7-4.5c3-3,4.5-6.6,4.5-10.7c0-4.1-1.5-7.7-4.5-10.7C222.5,186.2,219,184.7,214.9,184.7z"/>
	<path id="XMLID_95_" class="st0" d="M102.2,109.8L79,133c-0.7,0.7-1.1,1.5-1.1,2.6v3.4h46v-30h-19
		C103.8,108.9,102.9,109.1,102.2,109.8z"/>
	<path id="XMLID_94_" class="st0" d="M108.4,184.7c-4.1,0-7.7,1.5-10.7,4.5c-3,3-4.5,6.6-4.5,10.7c0,4.1,1.5,7.7,4.5,10.7
		c3,3,6.6,4.5,10.7,4.5c4.1,0,7.7-1.5,10.7-4.5c3-3,4.5-6.6,4.5-10.7c0-4.1-1.5-7.7-4.5-10.7C116.1,186.2,112.5,184.7,108.4,184.7z"
		/>
	<path id="XMLID_91_" class="st0" d="M316.9,133.1l-64-110.8C248,14,239.1,8.9,229.4,8.9H101.3c-9.7,0-18.6,5.1-23.5,13.4l-64,110.8
		c-4.8,8.4-4.8,18.7,0,27.1l64,111c4.8,8.4,13.8,13.7,23.5,13.7h128.1c9.7,0,18.6-5.3,23.5-13.7l64-110.9
		C321.8,151.9,321.8,141.5,316.9,133.1z M259.9,192.3c0,1.2,0.1,2.2-0.2,3.1c-0.3,0.9-0.7,1.6-1.5,2.2c-0.8,0.6-1.3,1-1.9,1.4
		c-0.6,0.4-1.4,0.6-2.8,0.7c-1.3,0.1-2.2,0.2-2.7,0.2c-0.5,0-1.5,0-3,0c-1.5,0-2.4-0.1-2.7-0.1c0,8.4-3,15.6-8.9,21.5
		s-13.1,8.9-21.5,8.9c-8.4,0-15.6-3-21.5-8.9c-5.9-5.9-8.9-13.5-8.9-21.5h-45.6c0,8-3,15.6-8.9,21.5c-5.9,5.9-13.1,8.9-21.5,8.9
		c-8.4,0-15.6-3-21.5-8.9c-5.9-5.9-8.9-13.5-8.9-21.5h-7.6c-0.2,0-1.1,0-2.7,0.1c-1.5,0-2.6,0-3,0c-0.5,0-1.4-0.1-2.7-0.2
		c-1.3-0.1-2.2-0.4-2.8-0.7c-0.6-0.4-1.2-0.8-2-1.4c-0.8-0.6-1.3-1.3-1.6-2.2c-0.3-0.9-0.5-2-0.5-3.1c0-2.1,0.8-3.8,2.3-5.3
		c1.5-1.5,3.4-2.3,5.4-2.3v-38c0-0.6-0.1-2-0.1-4.2c0-2.1-0.1-3.6,0-4.5c0-0.9,0.1-2.2,0.3-4.1c0.2-1.9,0.4-3.3,0.8-4.4
		c0.4-1.1,0.9-2.3,1.7-3.6c0.8-1.3,1.6-2.5,2.7-3.6l23.5-23.5c1.5-1.5,3.5-3,6-4.1c2.5-1,4.8-1.8,6.9-1.8h19.3V70.6
		c0-2.1,0.6-3.9,2.1-5.4c1.5-1.5,3.2-2.3,5.2-2.3h121.7c2.1,0,3.5,0.8,5,2.3c1.5,1.5,2,3.4,2,5.4V192.3z"/>
</g>
<g id="XMLID_161_">
	<path id="XMLID_2_" class="st0" d="M430.6,204.4h-16.4V78.1h-44.6V63.5h105.6v14.6h-44.6V204.4z"/>
	<path id="XMLID_4_" class="st0" d="M542.2,96.9c4.7,0,8.9,0.4,12.6,1.2l-2.2,14.8c-4.4-1-8.2-1.4-11.6-1.4
		c-8.5,0-15.9,3.5-21.9,10.4c-6.1,6.9-9.1,15.6-9.1,25.9v56.7h-16V98.8h13.2l1.8,19.6h0.8c3.9-6.9,8.6-12.2,14.2-15.9
		C529.5,98.7,535.6,96.9,542.2,96.9z"/>
	<path id="XMLID_6_" class="st0" d="M639.5,204.4l-3.2-15h-0.8c-5.3,6.6-10.5,11.1-15.8,13.4c-5.2,2.3-11.8,3.5-19.6,3.5
		c-10.5,0-18.7-2.7-24.6-8.1c-5.9-5.4-8.9-13.1-8.9-23c0-21.3,17.1-32.5,51.2-33.5l17.9-0.6v-6.6c0-8.3-1.8-14.4-5.3-18.4
		s-9.3-5.9-17.1-5.9c-8.8,0-18.8,2.7-29.9,8.1l-4.9-12.2c5.2-2.8,10.9-5,17.1-6.6c6.2-1.6,12.4-2.4,18.6-2.4c12.6,0,21.9,2.8,28,8.4
		c6.1,5.6,9.1,14.6,9.1,26.9v72.1H639.5z M603.4,193.1c10,0,17.8-2.7,23.5-8.2c5.7-5.5,8.5-13.1,8.5-22.9v-9.5l-16,0.7
		c-12.7,0.5-21.9,2.4-27.5,5.9c-5.6,3.5-8.4,8.9-8.4,16.3c0,5.8,1.8,10.2,5.3,13.2C592.2,191.6,597.1,193.1,603.4,193.1z"/>
	<path id="XMLID_9_" class="st0" d="M756.6,204.4v-68.3c0-8.6-2-15-5.9-19.3c-3.9-4.2-10.1-6.4-18.4-6.4c-11,0-19.1,3-24.3,9
		c-5.1,6-7.7,15.8-7.7,29.6v55.4h-16V98.8h13l2.6,14.5h0.8c3.3-5.2,7.9-9.2,13.8-12.1c5.9-2.9,12.5-4.3,19.8-4.3
		c12.7,0,22.3,3.1,28.7,9.2c6.4,6.1,9.6,15.9,9.6,29.4v68.9H756.6z"/>
	<path id="XMLID_11_" class="st0" d="M873.6,175.6c0,9.8-3.7,17.4-11,22.7c-7.3,5.3-17.6,8-30.8,8c-14,0-24.9-2.2-32.8-6.6v-14.8
		c5.1,2.6,10.5,4.6,16.3,6.1c5.8,1.5,11.4,2.2,16.8,2.2c8.4,0,14.8-1.3,19.3-4c4.5-2.7,6.7-6.7,6.7-12.2c0-4.1-1.8-7.6-5.3-10.6
		c-3.6-2.9-10.5-6.4-20.9-10.4c-9.8-3.7-16.8-6.9-21-9.6c-4.1-2.7-7.2-5.8-9.3-9.3c-2-3.5-3-7.6-3-12.4c0-8.6,3.5-15.4,10.5-20.4
		c7-5,16.6-7.5,28.8-7.5c11.4,0,22.5,2.3,33.3,6.9l-5.7,13c-10.6-4.4-20.2-6.6-28.8-6.6c-7.6,0-13.3,1.2-17.2,3.6
		c-3.9,2.4-5.8,5.7-5.8,9.8c0,2.8,0.7,5.2,2.2,7.2c1.4,2,3.8,3.9,7,5.7c3.2,1.8,9.4,4.4,18.5,7.8c12.5,4.6,21,9.2,25.4,13.8
		C871.4,162.8,873.6,168.6,873.6,175.6z"/>
	<path id="XMLID_13_" class="st0" d="M948.8,206.3c-6.9,0-13.2-1.3-18.8-3.8s-10.5-6.4-14.3-11.7h-1.2c0.8,6.2,1.2,12,1.2,17.5v43.5
		h-16v-153h13l2.2,14.5h0.8c4.1-5.8,8.9-10,14.4-12.5c5.5-2.6,11.7-3.9,18.8-3.9c14,0,24.8,4.8,32.4,14.4c7.6,9.6,11.4,23,11.4,40.3
		c0,17.3-3.9,30.8-11.6,40.4C973.3,201.5,962.5,206.3,948.8,206.3z M946.5,110.5c-10.8,0-18.6,3-23.4,9s-7.3,15.5-7.4,28.5v3.6
		c0,14.8,2.5,25.5,7.4,31.8c4.9,6.4,12.9,9.6,23.8,9.6c9.1,0,16.3-3.7,21.4-11.1c5.2-7.4,7.8-17.6,7.8-30.5
		c0-13.2-2.6-23.3-7.8-30.3C963.1,114,955.8,110.5,946.5,110.5z"/>
	<path id="XMLID_16_" class="st0" d="M1111.7,151.5c0,17.2-4.3,30.7-13,40.3c-8.7,9.7-20.7,14.5-35.9,14.5c-9.4,0-17.8-2.2-25.2-6.6
		c-7.3-4.4-13-10.8-17-19.1c-4-8.3-6-18-6-29.1c0-17.2,4.3-30.6,12.9-40.2c8.6-9.6,20.6-14.4,35.8-14.4c14.8,0,26.5,4.9,35.2,14.7
		C1107.4,121.4,1111.7,134.7,1111.7,151.5z M1031.3,151.5c0,13.5,2.7,23.8,8.1,30.8c5.4,7.1,13.3,10.6,23.8,10.6s18.4-3.5,23.9-10.6
		c5.4-7,8.1-17.3,8.1-30.9c0-13.4-2.7-23.6-8.1-30.6c-5.4-7-13.4-10.5-24-10.5c-10.5,0-18.4,3.4-23.7,10.3
		C1033.9,127.7,1031.3,137.9,1031.3,151.5z"/>
	<path id="XMLID_19_" class="st0" d="M1188,96.9c4.7,0,8.9,0.4,12.6,1.2l-2.2,14.8c-4.4-1-8.2-1.4-11.6-1.4
		c-8.5,0-15.9,3.5-21.9,10.4c-6.1,6.9-9.1,15.6-9.1,25.9v56.7h-16V98.8h13.2l1.8,19.6h0.8c3.9-6.9,8.6-12.2,14.2-15.9
		C1175.3,98.7,1181.3,96.9,1188,96.9z"/>
	<path id="XMLID_21_" class="st0" d="M1254.5,193.1c2.8,0,5.6-0.2,8.2-0.6c2.6-0.4,4.7-0.9,6.3-1.3v12.2c-1.7,0.8-4.3,1.5-7.7,2.1
		c-3.4,0.5-6.4,0.8-9.1,0.8c-20.4,0-30.6-10.8-30.6-32.3v-62.8h-15.1v-7.7l15.1-6.6l6.7-22.5h9.3v24.5h30.6v12.4h-30.6v62.2
		c0,6.4,1.5,11.2,4.5,14.6C1245,191.4,1249.2,193.1,1254.5,193.1z"/>
	<path id="XMLID_23_" class="st0" d="M1334.6,206.3c-15.6,0-27.9-4.8-37-14.3c-9-9.5-13.5-22.7-13.5-39.6c0-17,4.2-30.5,12.6-40.6
		s19.6-15,33.8-15c13.2,0,23.7,4.4,31.4,13.1c7.7,8.7,11.6,20.2,11.6,34.5v10.1h-72.8c0.3,12.4,3.5,21.8,9.4,28.2
		c5.9,6.4,14.3,9.6,25.1,9.6c11.4,0,22.6-2.4,33.7-7.1v14.3c-5.7,2.4-11,4.2-16,5.3C1347.9,205.8,1341.8,206.3,1334.6,206.3z
		 M1330.3,110.3c-8.5,0-15.2,2.8-20.3,8.3c-5,5.5-8,13.2-8.9,22.9h55.2c0-10.1-2.3-17.8-6.7-23.2
		C1345.1,113,1338.7,110.3,1330.3,110.3z"/>
	<path id="XMLID_26_" class="st0" d="M1468.9,175.6c0,9.8-3.7,17.4-11,22.7c-7.3,5.3-17.6,8-30.8,8c-14,0-24.9-2.2-32.8-6.6v-14.8
		c5.1,2.6,10.5,4.6,16.3,6.1c5.8,1.5,11.4,2.2,16.8,2.2c8.4,0,14.8-1.3,19.3-4c4.5-2.7,6.7-6.7,6.7-12.2c0-4.1-1.8-7.6-5.3-10.6
		c-3.6-2.9-10.5-6.4-20.9-10.4c-9.8-3.7-16.8-6.9-21-9.6c-4.1-2.7-7.2-5.8-9.3-9.3c-2-3.5-3-7.6-3-12.4c0-8.6,3.5-15.4,10.5-20.4
		c7-5,16.6-7.5,28.8-7.5c11.4,0,22.5,2.3,33.3,6.9l-5.7,13c-10.6-4.4-20.2-6.6-28.8-6.6c-7.6,0-13.3,1.2-17.2,3.6
		c-3.9,2.4-5.8,5.7-5.8,9.8c0,2.8,0.7,5.2,2.2,7.2c1.4,2,3.8,3.9,7,5.7c3.2,1.8,9.4,4.4,18.5,7.8c12.5,4.6,21,9.2,25.4,13.8
		C1466.7,162.8,1468.9,168.6,1468.9,175.6z"/>
	<path id="XMLID_28_" class="st0" d="M1650.3,204.4h-19.3l-51.4-68.3l-14.7,13.1v55.2h-16.4V63.5h16.4v69.9l63.9-69.9h19.4
		l-56.7,61.2L1650.3,204.4z"/>
	<path id="XMLID_30_" class="st0" d="M1732.2,204.4l-3.2-15h-0.8c-5.3,6.6-10.5,11.1-15.8,13.4c-5.2,2.3-11.8,3.5-19.6,3.5
		c-10.5,0-18.7-2.7-24.6-8.1c-5.9-5.4-8.9-13.1-8.9-23c0-21.3,17.1-32.5,51.2-33.5l17.9-0.6v-6.6c0-8.3-1.8-14.4-5.3-18.4
		s-9.3-5.9-17.1-5.9c-8.8,0-18.8,2.7-29.9,8.1l-4.9-12.2c5.2-2.8,10.9-5,17.1-6.6c6.2-1.6,12.4-2.4,18.6-2.4c12.6,0,21.9,2.8,28,8.4
		c6.1,5.6,9.1,14.6,9.1,26.9v72.1H1732.2z M1696.1,193.1c10,0,17.8-2.7,23.5-8.2c5.7-5.5,8.5-13.1,8.5-22.9v-9.5l-16,0.7
		c-12.7,0.5-21.9,2.4-27.5,5.9c-5.6,3.5-8.4,8.9-8.4,16.3c0,5.8,1.8,10.2,5.3,13.2C1684.9,191.6,1689.8,193.1,1696.1,193.1z"/>
	<path id="XMLID_33_" class="st0" d="M1811.2,193.1c2.8,0,5.6-0.2,8.2-0.6c2.6-0.4,4.7-0.9,6.3-1.3v12.2c-1.7,0.8-4.3,1.5-7.7,2.1
		c-3.4,0.5-6.4,0.8-9.1,0.8c-20.4,0-30.6-10.8-30.6-32.3v-62.8h-15.1v-7.7l15.1-6.6l6.7-22.5h9.3v24.5h30.6v12.4h-30.6v62.2
		c0,6.4,1.5,11.2,4.5,14.6C1801.8,191.4,1805.9,193.1,1811.2,193.1z"/>
	<path id="XMLID_35_" class="st0" d="M1845.4,70.2c0-3.7,0.9-6.3,2.7-8c1.8-1.7,4-2.6,6.7-2.6c2.6,0,4.8,0.9,6.6,2.6
		c1.9,1.7,2.8,4.4,2.8,8c0,3.6-0.9,6.3-2.8,8c-1.9,1.8-4.1,2.7-6.6,2.7c-2.7,0-4.9-0.9-6.7-2.7C1846.3,76.5,1845.4,73.8,1845.4,70.2
		z M1862.7,204.4h-16V98.8h16V204.4z"/>
	<path id="XMLID_38_" class="st0" d="M1961.6,204.4l-3.2-15h-0.8c-5.3,6.6-10.5,11.1-15.8,13.4c-5.2,2.3-11.8,3.5-19.6,3.5
		c-10.5,0-18.7-2.7-24.6-8.1c-5.9-5.4-8.9-13.1-8.9-23c0-21.3,17.1-32.5,51.2-33.5l17.9-0.6v-6.6c0-8.3-1.8-14.4-5.3-18.4
		s-9.3-5.9-17.1-5.9c-8.8,0-18.8,2.7-29.9,8.1l-4.9-12.2c5.2-2.8,10.9-5,17.1-6.6c6.2-1.6,12.4-2.4,18.6-2.4c12.6,0,21.9,2.8,28,8.4
		c6.1,5.6,9.1,14.6,9.1,26.9v72.1H1961.6z M1925.5,193.1c10,0,17.8-2.7,23.5-8.2c5.7-5.5,8.5-13.1,8.5-22.9v-9.5l-16,0.7
		c-12.7,0.5-21.9,2.4-27.5,5.9c-5.6,3.5-8.4,8.9-8.4,16.3c0,5.8,1.8,10.2,5.3,13.2C1914.3,191.6,1919.2,193.1,1925.5,193.1z"/>
</g>
<g id="XMLID_1_">
</g>
<g id="XMLID_41_">
</g>
<g id="XMLID_42_">
</g>
<g id="XMLID_43_">
</g>
<g id="XMLID_44_">
</g>
<g id="XMLID_45_">
</g>
<g id="XMLID_46_">
</g>
<g id="XMLID_47_">
</g>
<g id="XMLID_48_">
</g>
<g id="XMLID_49_">
</g>
<g id="XMLID_50_">
</g>
<g id="XMLID_51_">
</g>
<g id="XMLID_52_">
</g>
<g id="XMLID_53_">
</g>
<g id="XMLID_54_">
</g>
</svg>
