<?xml version="1.0" encoding="utf-8"?>
<!-- Generator: Adobe Illustrator 19.0.0, SVG Export Plug-In . SVG Version: 6.00 Build 0)  -->
<svg version="1.1" id="Capa_1" xmlns="http://www.w3.org/2000/svg" xmlns:xlink="http://www.w3.org/1999/xlink" x="0px" y="0px"
	 viewBox="0 0 691.5 294" style="enable-background:new 0 0 691.5 294;" xml:space="preserve">
<style type="text/css">
	.st0{fill:#002B3F;}
</style>
<g id="XMLID_3_">
	<g id="XMLID_4_">
		<path id="XMLID_5_" d="M354.4,94.3h-5V55.7h-13.6v-4.4H368v4.4h-13.6V94.3z"/>
		<path id="XMLID_7_" d="M388.5,61.4c1.4,0,2.7,0.1,3.9,0.4l-0.7,4.5c-1.3-0.3-2.5-0.4-3.5-0.4c-2.6,0-4.8,1.1-6.7,3.2
			c-1.9,2.1-2.8,4.8-2.8,7.9v17.3h-4.9V62h4l0.6,6h0.2c1.2-2.1,2.6-3.7,4.3-4.9C384.6,62,386.4,61.4,388.5,61.4z"/>
		<path id="XMLID_9_" d="M418.2,94.3l-1-4.6H417c-1.6,2-3.2,3.4-4.8,4.1c-1.6,0.7-3.6,1.1-6,1.1c-3.2,0-5.7-0.8-7.5-2.5
			c-1.8-1.6-2.7-4-2.7-7c0-6.5,5.2-9.9,15.6-10.2l5.5-0.2v-2c0-2.5-0.5-4.4-1.6-5.6c-1.1-1.2-2.8-1.8-5.2-1.8
			c-2.7,0-5.7,0.8-9.1,2.5l-1.5-3.7c1.6-0.9,3.3-1.5,5.2-2c1.9-0.5,3.8-0.7,5.7-0.7c3.8,0,6.7,0.9,8.6,2.6c1.9,1.7,2.8,4.4,2.8,8.2
			v22H418.2z M407.2,90.8c3,0,5.4-0.8,7.2-2.5c1.7-1.7,2.6-4,2.6-7v-2.9l-4.9,0.2c-3.9,0.1-6.7,0.7-8.4,1.8c-1.7,1.1-2.6,2.7-2.6,5
			c0,1.8,0.5,3.1,1.6,4C403.7,90.4,405.2,90.8,407.2,90.8z"/>
		<path id="XMLID_23_" d="M454,94.3V73.4c0-2.6-0.6-4.6-1.8-5.9c-1.2-1.3-3.1-1.9-5.6-1.9c-3.4,0-5.8,0.9-7.4,2.7
			c-1.6,1.8-2.4,4.8-2.4,9v16.9h-4.9V62h4l0.8,4.4h0.2c1-1.6,2.4-2.8,4.2-3.7c1.8-0.9,3.8-1.3,6-1.3c3.9,0,6.8,0.9,8.8,2.8
			c2,1.9,2.9,4.9,2.9,9v21H454z"/>
		<path id="XMLID_26_" d="M489.7,85.5c0,3-1.1,5.3-3.4,6.9c-2.2,1.6-5.4,2.4-9.4,2.4c-4.3,0-7.6-0.7-10-2v-4.5
			c1.6,0.8,3.2,1.4,5,1.9c1.8,0.5,3.5,0.7,5.1,0.7c2.6,0,4.5-0.4,5.9-1.2c1.4-0.8,2.1-2.1,2.1-3.7c0-1.3-0.5-2.3-1.6-3.2
			c-1.1-0.9-3.2-1.9-6.4-3.2c-3-1.1-5.1-2.1-6.4-2.9c-1.3-0.8-2.2-1.8-2.8-2.8c-0.6-1.1-0.9-2.3-0.9-3.8c0-2.6,1.1-4.7,3.2-6.2
			c2.1-1.5,5.1-2.3,8.8-2.3c3.5,0,6.9,0.7,10.2,2.1l-1.7,4c-3.2-1.3-6.2-2-8.8-2c-2.3,0-4.1,0.4-5.2,1.1c-1.2,0.7-1.8,1.7-1.8,3
			c0,0.9,0.2,1.6,0.7,2.2c0.4,0.6,1.2,1.2,2.1,1.7c1,0.5,2.9,1.3,5.7,2.4c3.8,1.4,6.4,2.8,7.8,4.2C489,81.5,489.7,83.3,489.7,85.5z"
			/>
		<path id="XMLID_28_" d="M512.6,94.8c-2.1,0-4-0.4-5.8-1.2c-1.7-0.8-3.2-2-4.4-3.6h-0.4c0.2,1.9,0.4,3.7,0.4,5.4v13.3h-4.9V62h4
			l0.7,4.4h0.2c1.3-1.8,2.7-3,4.4-3.8c1.7-0.8,3.6-1.2,5.7-1.2c4.3,0,7.6,1.5,9.9,4.4c2.3,2.9,3.5,7,3.5,12.3
			c0,5.3-1.2,9.4-3.5,12.3C520.1,93.4,516.8,94.8,512.6,94.8z M511.9,65.6c-3.3,0-5.7,0.9-7.2,2.7c-1.5,1.8-2.2,4.7-2.3,8.7v1.1
			c0,4.5,0.8,7.8,2.3,9.7c1.5,2,3.9,2.9,7.3,2.9c2.8,0,5-1.1,6.5-3.4c1.6-2.3,2.4-5.4,2.4-9.3c0-4-0.8-7.1-2.4-9.3
			C517,66.6,514.8,65.6,511.9,65.6z"/>
		<path id="XMLID_31_" d="M562.4,78.1c0,5.3-1.3,9.4-4,12.3c-2.6,3-6.3,4.4-11,4.4c-2.9,0-5.4-0.7-7.7-2c-2.2-1.4-4-3.3-5.2-5.8
			c-1.2-2.5-1.8-5.5-1.8-8.9c0-5.3,1.3-9.4,3.9-12.3c2.6-2.9,6.3-4.4,10.9-4.4c4.5,0,8.1,1.5,10.8,4.5
			C561.1,68.9,562.4,73,562.4,78.1z M537.8,78.1c0,4.1,0.8,7.3,2.5,9.4c1.6,2.2,4.1,3.2,7.3,3.2c3.2,0,5.6-1.1,7.3-3.2
			c1.7-2.1,2.5-5.3,2.5-9.4c0-4.1-0.8-7.2-2.5-9.3c-1.7-2.1-4.1-3.2-7.3-3.2c-3.2,0-5.6,1.1-7.2,3.1
			C538.7,70.8,537.8,73.9,537.8,78.1z"/>
		<path id="XMLID_34_" d="M585.7,61.4c1.4,0,2.7,0.1,3.9,0.4l-0.7,4.5c-1.3-0.3-2.5-0.4-3.5-0.4c-2.6,0-4.8,1.1-6.7,3.2
			c-1.9,2.1-2.8,4.8-2.8,7.9v17.3H571V62h4l0.6,6h0.2c1.2-2.1,2.6-3.7,4.3-4.9C581.8,62,583.7,61.4,585.7,61.4z"/>
		<path id="XMLID_36_" d="M606,90.8c0.9,0,1.7-0.1,2.5-0.2c0.8-0.1,1.4-0.3,1.9-0.4V94c-0.5,0.3-1.3,0.5-2.3,0.6
			c-1,0.2-2,0.3-2.8,0.3c-6.2,0-9.4-3.3-9.4-9.9V65.8h-4.6v-2.4l4.6-2l2.1-6.9h2.8V62h9.4v3.8h-9.4v19c0,1.9,0.5,3.4,1.4,4.5
			C603.1,90.3,604.4,90.8,606,90.8z"/>
		<path id="XMLID_39_" d="M630.5,94.8c-4.8,0-8.5-1.5-11.3-4.4c-2.8-2.9-4.1-6.9-4.1-12.1c0-5.2,1.3-9.3,3.8-12.4
			c2.6-3.1,6-4.6,10.3-4.6c4,0,7.2,1.3,9.6,4c2.4,2.7,3.5,6.2,3.5,10.5V79h-22.2c0.1,3.8,1.1,6.7,2.9,8.6s4.4,2.9,7.7,2.9
			c3.5,0,6.9-0.7,10.3-2.2v4.4c-1.7,0.7-3.4,1.3-4.9,1.6C634.5,94.7,632.7,94.8,630.5,94.8z M629.2,65.5c-2.6,0-4.7,0.8-6.2,2.5
			c-1.5,1.7-2.4,4-2.7,7h16.9c0-3.1-0.7-5.4-2.1-7.1C633.7,66.3,631.7,65.5,629.2,65.5z"/>
		<path id="XMLID_46_" d="M671.5,85.5c0,3-1.1,5.3-3.4,6.9c-2.2,1.6-5.4,2.4-9.4,2.4c-4.3,0-7.6-0.7-10-2v-4.5
			c1.6,0.8,3.2,1.4,5,1.9c1.8,0.5,3.5,0.7,5.1,0.7c2.6,0,4.5-0.4,5.9-1.2c1.4-0.8,2.1-2.1,2.1-3.7c0-1.3-0.5-2.3-1.6-3.2
			c-1.1-0.9-3.2-1.9-6.4-3.2c-3-1.1-5.1-2.1-6.4-2.9c-1.3-0.8-2.2-1.8-2.8-2.8c-0.6-1.1-0.9-2.3-0.9-3.8c0-2.6,1.1-4.7,3.2-6.2
			c2.1-1.5,5.1-2.3,8.8-2.3c3.5,0,6.9,0.7,10.2,2.1l-1.7,4c-3.2-1.3-6.2-2-8.8-2c-2.3,0-4.1,0.4-5.2,1.1c-1.2,0.7-1.8,1.7-1.8,3
			c0,0.9,0.2,1.6,0.7,2.2c0.4,0.6,1.2,1.2,2.1,1.7c1,0.5,2.9,1.3,5.7,2.4c3.8,1.4,6.4,2.8,7.8,4.2C670.8,81.5,671.5,83.3,671.5,85.5
			z"/>
	</g>
	<g id="XMLID_2_">
		<path id="XMLID_48_" d="M418.9,241.3h-15.1l-40.1-53.4l-11.5,10.2v43.2h-12.8V131.1h12.8v54.6l49.9-54.6h15.1L373,179L418.9,241.3
			z"/>
		<path id="XMLID_50_" d="M483,241.3l-2.5-11.8h-0.6c-4.1,5.2-8.2,8.7-12.3,10.5c-4.1,1.8-9.2,2.7-15.3,2.7
			c-8.2,0-14.6-2.1-19.2-6.3c-4.6-4.2-7-10.2-7-18c0-16.7,13.3-25.4,40-26.2l14-0.5v-5.1c0-6.5-1.4-11.3-4.2-14.3
			c-2.8-3.1-7.2-4.6-13.4-4.6c-6.9,0-14.7,2.1-23.4,6.3l-3.8-9.6c4.1-2.2,8.5-3.9,13.4-5.2c4.8-1.3,9.7-1.9,14.6-1.9
			c9.8,0,17.1,2.2,21.9,6.6c4.7,4.4,7.1,11.4,7.1,21v56.3H483z M454.7,232.4c7.8,0,13.9-2.1,18.3-6.4c4.4-4.3,6.7-10.2,6.7-17.9
			v-7.5l-12.5,0.5c-9.9,0.4-17.1,1.9-21.5,4.6c-4.4,2.7-6.6,7-6.6,12.8c0,4.5,1.4,8,4.1,10.3C446,231.3,449.8,232.4,454.7,232.4z"/>
		<path id="XMLID_53_" d="M544.7,232.4c2.2,0,4.3-0.2,6.4-0.5c2.1-0.3,3.7-0.7,4.9-1v9.6c-1.4,0.7-3.4,1.2-6,1.6s-5,0.6-7.1,0.6
			c-16,0-24-8.4-24-25.2v-49.1h-11.8v-6l11.8-5.2l5.3-17.6h7.2v19.1h24v9.7h-24V217c0,5,1.2,8.8,3.5,11.4
			C537.3,231.1,540.5,232.4,544.7,232.4z"/>
		<path id="XMLID_55_" d="M571.4,136.3c0-2.9,0.7-5,2.1-6.3c1.4-1.3,3.2-2,5.3-2c2,0,3.7,0.7,5.2,2c1.5,1.4,2.2,3.4,2.2,6.3
			c0,2.8-0.7,4.9-2.2,6.3c-1.5,1.4-3.2,2.1-5.2,2.1c-2.1,0-3.9-0.7-5.3-2.1C572.1,141.2,571.4,139.1,571.4,136.3z M585,241.3h-12.5
			v-82.6H585V241.3z"/>
		<path id="XMLID_58_" d="M662.2,241.3l-2.5-11.8h-0.6c-4.1,5.2-8.2,8.7-12.3,10.5c-4.1,1.8-9.2,2.7-15.3,2.7
			c-8.2,0-14.6-2.1-19.2-6.3c-4.6-4.2-7-10.2-7-18c0-16.7,13.3-25.4,40-26.2l14-0.5v-5.1c0-6.5-1.4-11.3-4.2-14.3
			c-2.8-3.1-7.2-4.6-13.4-4.6c-6.9,0-14.7,2.1-23.4,6.3l-3.8-9.6c4.1-2.2,8.5-3.9,13.4-5.2c4.8-1.3,9.7-1.9,14.6-1.9
			c9.8,0,17.1,2.2,21.9,6.6c4.7,4.4,7.1,11.4,7.1,21v56.3H662.2z M634,232.4c7.8,0,13.9-2.1,18.3-6.4c4.4-4.3,6.7-10.2,6.7-17.9
			v-7.5l-12.5,0.5c-9.9,0.4-17.1,1.9-21.5,4.6c-4.4,2.7-6.6,7-6.6,12.8c0,4.5,1.4,8,4.1,10.3C625.2,231.3,629.1,232.4,634,232.4z"/>
	</g>
</g>
<g id="XMLID_42_">
	<path id="XMLID_64_" class="st0" d="M212,185.1c-4.1,0-7.7,1.5-10.7,4.5c-3,3-4.5,6.6-4.5,10.7c0,4.1,1.5,7.7,4.5,10.7
		c3,3,6.6,4.5,10.7,4.5c4.1,0,7.7-1.5,10.7-4.5c3-3,4.5-6.6,4.5-10.7c0-4.1-1.5-7.7-4.5-10.7C219.7,186.6,216.1,185.1,212,185.1z"/>
	<path id="XMLID_65_" class="st0" d="M99.4,110.1l-23.2,23.2c-0.7,0.7-1.1,1.6-1.1,2.6v3.1h46v-30h-19
		C101,109,100.1,109.4,99.4,110.1z"/>
	<path id="XMLID_66_" class="st0" d="M105.6,185.1c-4.1,0-7.7,1.5-10.7,4.5c-3,3-4.5,6.6-4.5,10.7c0,4.1,1.5,7.7,4.5,10.7
		c3,3,6.6,4.5,10.7,4.5c4.1,0,7.7-1.5,10.7-4.5c3-3,4.5-6.6,4.5-10.7c0-4.1-1.5-7.7-4.5-10.7C113.2,186.6,109.7,185.1,105.6,185.1z"
		/>
	<path id="XMLID_69_" class="st0" d="M314.1,133.5L250,22.6C245.2,14.2,236.2,9,226.5,9H98.5C88.8,9,79.8,14.2,75,22.6L11,133.5
		c-4.8,8.4-4.8,18.7,0,27.1l64,110.8c4.8,8.4,13.8,13.5,23.5,13.5h128.1c9.7,0,18.6-5.1,23.5-13.5l64-110.9
		C318.9,152.2,318.9,141.9,314.1,133.5z M257,192.7c0,1.2,0.2,2.2-0.2,3.1c-0.3,0.9-0.7,1.6-1.4,2.2c-0.8,0.6-1.3,1-1.9,1.4
		c-0.6,0.4-1.4,0.6-2.8,0.7c-1.3,0.1-2.2,0.2-2.7,0.2c-0.5,0-1.5,0-3,0c-1.5,0-2.4-0.1-2.7-0.1c0,8.4-3,15.6-8.9,21.5
		c-5.9,5.9-13.1,8.9-21.5,8.9c-8.4,0-15.6-3.1-21.5-9.1s-8.9-13.7-8.9-21.7H136c0,8-3,15.7-8.9,21.7s-13.1,9-21.5,9
		c-8.4,0-15.6-3.1-21.5-9S75.1,208,75.1,200h-7.6c-0.2,0-1.1,0.2-2.7,0.2c-1.5,0-2.6,0.1-3,0.1c-0.5,0-1.4-0.1-2.7-0.2
		c-1.3-0.1-2.2-0.3-2.8-0.7c-0.6-0.4-1.2-0.8-2-1.4c-0.8-0.6-1.3-1.3-1.6-2.2c-0.3-0.9-0.5-2-0.5-3.1c0-2.1,0.8-3.8,2.3-5.3
		c1.5-1.5,3.4-2.3,5.4-2.3v-38c0-0.6-0.1-2-0.1-4.2c0-2.1-0.1-3.6,0-4.5c0-0.9,0.1-2.2,0.3-4.1c0.2-1.9,0.4-3.3,0.8-4.4
		c0.4-1.1,0.9-2.3,1.7-3.6c0.8-1.3,1.6-2.5,2.7-3.6l23.5-23.5c1.5-1.5,3.5-3.2,6-4.2c2.5-1,4.8-2,6.9-2H121V71
		c0-2.1,0.6-4.1,2.1-5.6c1.5-1.5,3.2-2.5,5.2-2.5H250c2.1,0,3.5,1,5,2.5C256.6,67,257,69,257,71V192.7z"/>
</g>
<g id="XMLID_1_">
</g>
<g id="XMLID_11_">
</g>
<g id="XMLID_12_">
</g>
<g id="XMLID_13_">
</g>
<g id="XMLID_15_">
</g>
<g id="XMLID_16_">
</g>
<g id="XMLID_17_">
</g>
<g id="XMLID_18_">
</g>
<g id="XMLID_19_">
</g>
<g id="XMLID_20_">
</g>
<g id="XMLID_21_">
</g>
<g id="XMLID_22_">
</g>
<g id="XMLID_24_">
</g>
<g id="XMLID_37_">
</g>
<g id="XMLID_43_">
</g>
</svg>
