<?xml version="1.0" encoding="utf-8"?>
<!-- Generator: Adobe Illustrator 19.0.0, SVG Export Plug-In . SVG Version: 6.00 Build 0)  -->
<svg version="1.1" id="Capa_1" xmlns="http://www.w3.org/2000/svg" xmlns:xlink="http://www.w3.org/1999/xlink" x="0px" y="0px"
	 viewBox="0 0 220.4 247.2" style="enable-background:new 0 0 220.4 247.2;" xml:space="preserve">
<style type="text/css">
	.st0{fill:#FFFFFF;}
	.st1{fill:#494B55;}
	.st2{fill:#787C8B;}
</style>
<g>
	<path class="st0" d="M0,173.1l0-98.4c0-9,4.8-17.3,12.5-21.8l85-49.5c7.8-4.5,17.5-4.6,25.3-0.1l84.9,48.8
		c7.8,4.5,12.7,12.9,12.7,21.9l0,98.4c0,9-4.8,17.3-12.5,21.8l-85,49.5c-7.8,4.5-17.5,4.6-25.3,0.1L12.7,195
		C4.9,190.5,0,182.2,0,173.1z"/>
	<g>
		<rect x="39.6" y="100.8" class="st0" width="35.8" height="82.9"/>
		<rect x="100.8" y="56.8" class="st0" width="77.2" height="125"/>
		<path class="st1" d="M176.4,52.1h-74c-4.2,0-7.6,3.1-7.6,7.3v117.2c0,4.2,3.3,7.6,7.6,7.6h74c4.2,0,8-3.3,8-7.6V59.4
			C184.2,55.2,180.4,52.1,176.4,52.1z M139.9,57.9c0.7,0,1.3,0.7,1.3,1.3c0,0.7-0.7,1.3-1.3,1.3c-0.7,0-1.3-0.7-1.3-1.3
			C138.4,58.5,139,57.9,139.9,57.9z M139.9,180.8c-2.2,0-3.8-1.8-3.8-3.8c0-2.2,1.8-3.8,3.8-3.8c2,0,3.8,1.8,3.8,3.8
			C143.7,179.1,142.1,180.8,139.9,180.8z M178.2,169.7h-77.4V66.5h77.6L178.2,169.7L178.2,169.7z"/>
		<path class="st1" d="M71.2,98.1h-28c-3.6,0-7.1,3.3-7.1,6.9v74.3c0,3.6,3.6,6.4,7.1,6.4h28c3.6,0,7.3-2.9,7.3-6.4V105
			C78.5,101.5,74.8,98.1,71.2,98.1z M57.2,100.8c0.7,0,1.1,0.4,1.1,1.1s-0.4,1.1-1.1,1.1s-1.1-0.4-1.1-1.1S56.7,100.8,57.2,100.8z
			 M55.6,105.2h6c0.4,0,0.9,0.4,0.9,0.9s-0.4,0.9-0.9,0.9h-6c-0.4,0-0.9-0.4-0.9-0.9S55,105.2,55.6,105.2z M51.9,105.2
			c0.4,0,0.9,0.4,0.9,0.9s-0.4,0.9-0.9,0.9c-0.4,0-0.9-0.4-0.9-0.9S51.2,105.2,51.9,105.2z M57.2,183.1c-1.8,0-3.1-1.3-3.1-3.1
			c0-1.8,1.3-3.1,3.1-3.1c1.8,0,3.1,1.3,3.1,3.1C60.3,181.7,59,183.1,57.2,183.1z M75.2,174H39.4v-63.8h35.8L75.2,174z"/>
		<rect x="65" y="110.1" class="st0" width="35.8" height="82.9"/>
		<path class="st2" d="M96.8,107.5h-28c-3.6,0-7.1,3.3-7.1,6.9v74.3c0,3.6,3.6,6.4,7.1,6.4h28c3.6,0,7.3-2.9,7.3-6.4v-74.3
			C104.1,110.8,100.3,107.5,96.8,107.5z M82.8,110.1c0.7,0,1.1,0.4,1.1,1.1s-0.4,1.1-1.1,1.1s-1.1-0.4-1.1-1.1
			C81.6,110.8,82.3,110.1,82.8,110.1z M81.2,114.6h6c0.4,0,0.9,0.4,0.9,0.9s-0.4,0.9-0.9,0.9h-6c-0.4,0-0.9-0.4-0.9-0.9
			C80.3,115,80.5,114.6,81.2,114.6z M77.4,114.6c0.4,0,0.9,0.4,0.9,0.9s-0.4,0.9-0.9,0.9s-0.9-0.4-0.9-0.9
			C76.3,115,76.8,114.6,77.4,114.6z M82.8,192.6c-1.8,0-3.1-1.3-3.1-3.1c0-1.8,1.3-3.1,3.1-3.1s3.1,1.3,3.1,3.1
			C86.1,191.1,84.5,192.6,82.8,192.6z M100.8,183.3H65v-63.8h35.8L100.8,183.3L100.8,183.3z"/>
	</g>
</g>
<g id="XMLID_53_">
</g>
<g id="XMLID_54_">
</g>
<g id="XMLID_55_">
</g>
<g id="XMLID_56_">
</g>
<g id="XMLID_57_">
</g>
<g id="XMLID_58_">
</g>
<g id="XMLID_59_">
</g>
<g id="XMLID_60_">
</g>
<g id="XMLID_61_">
</g>
<g id="XMLID_62_">
</g>
<g id="XMLID_63_">
</g>
<g id="XMLID_64_">
</g>
<g id="XMLID_65_">
</g>
<g id="XMLID_66_">
</g>
<g id="XMLID_67_">
</g>
</svg>
