<?xml version="1.0" encoding="utf-8"?>
<!-- Generator: Adobe Illustrator 19.0.0, SVG Export Plug-In . SVG Version: 6.00 Build 0)  -->
<svg version="1.1" id="Capa_1" xmlns="http://www.w3.org/2000/svg" xmlns:xlink="http://www.w3.org/1999/xlink" x="0px" y="0px"
	 viewBox="0 0 62.4 62.4" style="enable-background:new 0 0 62.4 62.4;" xml:space="preserve">
<style type="text/css">
	.st0{fill:#9B842A;}
	.st1{fill:#FFFFFF;}
</style>
<g>
	<circle id="XMLID_53_" class="st0" cx="31.2" cy="31.2" r="31.2"/>
	<g id="fa-desktop">
		<path id="XMLID_55_" class="st1" d="M50.4,16.9v21.8c0,0.9-0.3,1.6-0.9,2.3c-0.6,0.6-1.4,0.9-2.3,0.9H36.3c0,0.5,0.1,1,0.3,1.6
			c0.2,0.5,0.4,1,0.6,1.4c0.2,0.4,0.3,0.7,0.3,0.9c0,0.3-0.1,0.6-0.4,0.9C37,46.9,36.7,47,36.3,47H26.1c-0.3,0-0.6-0.1-0.9-0.4
			c-0.3-0.3-0.4-0.6-0.4-0.9c0-0.2,0.1-0.5,0.3-0.9c0.2-0.4,0.4-0.9,0.6-1.4s0.3-1.1,0.3-1.6H15.2c-0.9,0-1.6-0.3-2.3-0.9
			S12,39.5,12,38.7V16.9c0-0.9,0.3-1.6,0.9-2.3s1.4-0.9,2.3-0.9h32.1c0.9,0,1.6,0.3,2.3,0.9C50.1,15.2,50.4,16,50.4,16.9z
			 M47.9,33.5V16.9c0-0.2-0.1-0.3-0.2-0.5c-0.1-0.1-0.3-0.2-0.5-0.2H15.2c-0.2,0-0.3,0.1-0.5,0.2s-0.2,0.3-0.2,0.5v16.7
			c0,0.2,0.1,0.3,0.2,0.5s0.3,0.2,0.5,0.2h32.1c0.2,0,0.3-0.1,0.5-0.2C47.8,33.8,47.9,33.7,47.9,33.5z"/>
	</g>
</g>
<g id="XMLID_54_">
</g>
<g id="XMLID_58_">
</g>
<g id="XMLID_59_">
</g>
<g id="XMLID_60_">
</g>
<g id="XMLID_61_">
</g>
<g id="XMLID_62_">
</g>
<g id="XMLID_63_">
</g>
<g id="XMLID_64_">
</g>
<g id="XMLID_65_">
</g>
<g id="XMLID_66_">
</g>
<g id="XMLID_67_">
</g>
<g id="XMLID_68_">
</g>
<g id="XMLID_69_">
</g>
<g id="XMLID_70_">
</g>
<g id="XMLID_71_">
</g>
</svg>
