<?xml version="1.0" encoding="utf-8"?>
<!-- Generator: Adobe Illustrator 19.0.0, SVG Export Plug-In . SVG Version: 6.00 Build 0)  -->
<svg version="1.1" id="Capa_1" xmlns="http://www.w3.org/2000/svg" xmlns:xlink="http://www.w3.org/1999/xlink" x="0px" y="0px"
	 viewBox="0 0 62.4 62.4" style="enable-background:new 0 0 62.4 62.4;" xml:space="preserve">
<style type="text/css">
	.st0{fill:#97812C;}
	.st1{fill:#FFFFFF;}
</style>
<g>
	<circle id="XMLID_1_" class="st0" cx="31.2" cy="31.2" r="31.2"/>
	<g id="fa-user_6_">
		<path id="XMLID_3_" class="st1" d="M46.6,31.6c0,8.5-6.9,15.4-15.4,15.4c-8.5,0-15.4-6.9-15.4-15.4c0-8.5,6.9-15.4,15.4-15.4
			C39.7,16.2,46.6,23.1,46.6,31.6z M36.2,27c0.1,0,0.2-0.4,0.3-0.5c0.1-0.1,0.3-0.2,0.4-0.3c0.3-0.1,0.7-0.2,1-0.2
			c0.3-0.1,0.8-0.1,1,0.2c-0.1-0.1,0.4-0.5,0.5-0.5c0.2-0.1,0.5-0.1,0.6-0.2c0-0.1,0-0.4,0-0.4c-0.3,0-0.5-0.3-0.5-0.6
			c0,0,0,0.1-0.1,0.2c0-0.3-0.4-0.1-0.5-0.1c-0.5-0.1-0.4-0.4-0.5-0.8c-0.1-0.2-0.3-0.2-0.4-0.4C38,23.2,38,23,37.8,22.9
			c-0.1,0-0.3,0.4-0.4,0.4c-0.2-0.1-0.3,0-0.4,0.1c-0.1,0.1-0.2,0-0.3,0.1c0.4-0.1-0.2-0.3-0.3-0.3c0.3-0.1,0.1-0.4,0-0.5
			c0,0,0.1,0,0.1,0c0-0.2-0.6-0.3-0.8-0.5c-0.2-0.1-1.1-0.3-1.3-0.2c-0.2,0.1,0.1,0.5,0.1,0.7c0,0.2-0.2,0.3-0.2,0.5
			c0,0.3,0.6,0.3,0.5,0.7c-0.1,0.3-0.5,0.3-0.6,0.6c-0.2,0.2,0,0.6,0.2,0.7c0.2,0.1-0.3,0.3-0.3,0.4c-0.3,0.2-0.6-0.3-0.7-0.6
			c-0.1-0.2-0.1-0.5-0.3-0.6c-0.1,0-0.5-0.1-0.6,0c-0.1-0.3-0.5-0.4-0.8-0.5c-0.4-0.1-0.7-0.1-1.2-0.1c0.1,0,0-0.6-0.4-0.5
			c0.1-0.2,0.1-0.4,0.1-0.6c0-0.2,0.1-0.3,0.2-0.5c0-0.1,0.5-0.5,0.3-0.6c0.3,0,0.7,0.1,1-0.2c0.2-0.2,0.3-0.5,0.4-0.7
			c0.3-0.3,0.6,0.1,0.9,0.1c0.4,0,0.4-0.4,0.2-0.6c0.3,0,0-0.5-0.1-0.5c-0.2-0.1-0.9,0.1-0.5,0.3c-0.1,0-0.6,1-0.8,0.5
			c-0.1-0.1-0.1-0.5-0.3-0.5c-0.2,0-0.3,0.2-0.3,0.3c0.1-0.3-0.6-0.4-0.7-0.5c0.3-0.2,0.1-0.4-0.2-0.5c-0.2-0.1-0.7-0.2-0.8,0
			c-0.4,0.5,0.4,0.5,0.6,0.6c0.1,0,0.3,0.2,0.2,0.3c-0.1,0.1-0.5,0.2-0.5,0.2c-0.1,0.2,0.1,0.4,0,0.6c-0.2-0.2-0.2-0.5-0.3-0.7
			c0.2,0.2-0.7,0.1-0.7,0.1c-0.3,0-0.8,0.2-1-0.1c0-0.1,0-0.5,0.1-0.4c-0.2-0.1-0.3-0.3-0.4-0.4c-0.7,0.2-1.3,0.5-1.9,0.8
			c0.1,0,0.1,0,0.2,0c0.2-0.1,0.3-0.2,0.5-0.2c0.2-0.1,0.6-0.3,0.8-0.1c0,0,0.1-0.1,0.1-0.1c0.1,0.2,0.3,0.3,0.4,0.5
			c-0.2-0.1-0.4,0-0.6,0c-0.1,0-0.4,0.1-0.4,0.2c0.1,0.1,0.1,0.3,0.1,0.4c-0.3-0.2-0.5-0.5-0.8-0.5c-0.2,0-0.3,0-0.4,0
			c-1.9,1.1-3.5,2.6-4.7,4.4c0.1,0.1,0.2,0.1,0.2,0.2c0.2,0.1,0,0.6,0.4,0.3c0.1,0.1,0.1,0.2,0.1,0.4c0,0,0.8,0.5,0.9,0.5
			c0.1,0.1,0.4,0.3,0.4,0.4c0,0.1-0.1,0.3-0.2,0.4c0,0-0.3-0.3-0.4-0.3c-0.1,0.1,0,0.6,0.2,0.6c-0.3,0-0.2,1.3-0.3,1.5c0,0,0,0,0,0
			c-0.1,0.2,0.1,1.2,0.5,1.1c-0.3,0.1,0.5,1,0.6,1c0.3,0.2,0.6,0.3,0.7,0.6c0.2,0.3,0.2,0.7,0.5,0.9c-0.1,0.2,0.4,0.5,0.4,0.9
			c0,0-0.1,0-0.1,0c0.1,0.3,0.5,0.3,0.6,0.5c0.1,0.2,0,0.5,0.3,0.5c0-0.4-0.3-0.9-0.5-1.2c-0.1-0.2-0.2-0.4-0.3-0.6
			c-0.1-0.2-0.1-0.4-0.2-0.6c0.1,0,0.5,0.2,0.5,0.2c-0.2,0.4,0.6,1.1,0.9,1.4c0.1,0.1,0.5,0.7,0.3,0.7c0.3,0,0.6,0.4,0.7,0.6
			c0.2,0.3,0.1,0.7,0.3,1c0.1,0.4,0.7,0.6,1,0.8c0.3,0.1,0.5,0.3,0.8,0.4c0.4,0.2,0.5,0,0.9,0c0.5-0.1,0.6,0.5,1,0.7
			c0.3,0.1,0.8,0.3,1.1,0.2c-0.1,0,0.4,0.9,0.5,0.9c0.2,0.2,0.5,0.4,0.7,0.6c0.1,0,0.1-0.1,0.1-0.2c-0.1,0.2,0.3,0.6,0.5,0.6
			c0.2,0,0.3-0.5,0.3-0.6c-0.4,0.2-0.8,0-1-0.4c0-0.1-0.4-0.7-0.1-0.7c0.4,0,0.1-0.3,0.1-0.6c0-0.3-0.3-0.5-0.5-0.7
			c-0.1,0.2-0.5,0.2-0.6,0c0,0.1-0.1,0.2-0.1,0.2c-0.1,0-0.2,0-0.3,0c0-0.2,0.1-0.5,0.1-0.8c0.1-0.4,0.8-1.1-0.1-1
			c-0.3,0-0.4,0.1-0.5,0.4c-0.1,0.2-0.1,0.5-0.3,0.6c-0.2,0.1-0.8,0-1-0.1c-0.4-0.2-0.6-0.9-0.6-1.3c0-0.5,0.3-1,0-1.5
			c0.1-0.1,0.2-0.3,0.4-0.4c0.1-0.1,0.3,0.1,0.3-0.2c-0.1,0-0.1-0.1-0.2-0.1c0.3,0.1,0.9-0.2,1.1,0c0.2,0.1,0.3,0.2,0.4,0
			c0-0.1-0.1-0.3-0.1-0.5c0.1,0.3,0.3,0.4,0.6,0.2c0.1,0.1,0.4,0.1,0.7,0.2c0.2,0.1,0.3,0.4,0.5,0.1c0.2,0.2,0.2,0.2,0.2,0.5
			c0.1,0.2,0.2,0.8,0.4,0.9c0.4,0.3,0.3-0.4,0.3-0.7c0,0,0-0.7,0-0.7c-0.6-0.1-0.4-0.6,0-1c0.1,0,0.5-0.2,0.7-0.4
			c0.2-0.2,0.4-0.4,0.3-0.7c0.1,0,0.2-0.1,0.2-0.2c-0.1,0-0.3-0.2-0.3-0.2c0.1-0.1,0.1-0.2,0-0.3c0.2-0.1,0.1-0.3,0.3-0.4
			c0.2,0.3,0.7,0,0.4-0.3c0.2-0.3,0.7-0.1,0.8-0.4c0.3,0.1,0.1-0.3,0.2-0.5c0.1-0.2,0.4-0.2,0.6-0.3c0,0,0.5-0.3,0.3-0.3
			c0.3,0,1-0.3,0.5-0.6c0.1-0.2-0.2-0.3-0.4-0.3c0.1,0,0.3,0,0.4,0c0.3-0.2,0.1-0.3-0.1-0.3c-0.3-0.1-0.6,0.1-0.9,0.2
			C36.5,26.8,36.4,27,36.2,27z M40.4,40.4c-0.1-0.1-0.3-0.1-0.5-0.2c-0.2-0.1-0.3-0.1-0.5-0.2c0-0.4-0.4-0.5-0.7-0.7
			C38.5,39.2,38.4,39,38,39c0,0-0.4,0.2-0.4,0.2c-0.3-0.2-0.4-0.3-0.7-0.4c-0.3-0.1-0.5-0.5-0.9-0.1c-0.2,0.2-0.1,0.4-0.2,0.6
			c-0.3-0.2,0.2-0.5,0-0.7c-0.2-0.3-0.7,0.2-0.9,0.3c-0.1,0.1-0.3,0.1-0.3,0.3c-0.1,0.1-0.1,0.3-0.2,0.5c-0.1-0.2-0.4-0.1-0.4-0.2
			c0.1,0.5,0.1,1,0.2,1.5c0.1,0.3,0,0.7-0.2,1c-0.2,0.2-0.5,0.5-0.6,0.8c0,0.2,0,0.5,0.2,0.5c0,0.3-0.3,0.5-0.3,0.8c0,0,0,0.2,0,0.3
			C36.2,43.7,38.6,42.4,40.4,40.4z"/>
	</g>
</g>
<g id="XMLID_2_">
</g>
<g id="XMLID_7_">
</g>
<g id="XMLID_8_">
</g>
<g id="XMLID_9_">
</g>
<g id="XMLID_10_">
</g>
<g id="XMLID_11_">
</g>
</svg>
