<?xml version="1.0" encoding="utf-8"?>
<!-- Generator: Adobe Illustrator 19.1.0, SVG Export Plug-In . SVG Version: 6.00 Build 0)  -->
<svg version="1.1" id="Layer_1" xmlns="http://www.w3.org/2000/svg" xmlns:xlink="http://www.w3.org/1999/xlink" x="0px" y="0px"
	 viewBox="-426 247.9 106 66.3" style="enable-background:new -426 247.9 106 66.3;" xml:space="preserve">
<style type="text/css">
	.st0{fill:#142E52;}
	.st1{fill:#C5D0D9;}
	.st2{fill:#415968;}
	.st3{fill:#3A6BB4;}
	.st4{fill:#4885DE;}
	.st5{clip-path:url(#SVGID_2_);fill:#3A6BB4;}
	.st6{fill:#D3DBE2;}
	.st7{fill:#4B4B4B;}
</style>
<g>
	<rect x="-355.4" y="247.9" class="st0" width="4.4" height="59.7"/>
	<rect x="-353.2" y="276.2" class="st0" width="33.2" height="1.6"/>
	<rect x="-347.1" y="253" class="st1" width="25.2" height="23.1"/>
	<path class="st2" d="M-396.7,283.7h15v-1.6c0-2-1.6-3.6-3.6-3.6h-11.4V283.7z"/>
	<path class="st2" d="M-394.3,272.1l-0.8-4c-0.4-1.9-0.5-3.9-0.3-5.9v-0.1c0.1-1.2-0.8-2.3-1.8-2.2l-2.5,0.3l1.8,17.3h0.4
		C-395.3,277.2-393.8,274.7-394.3,272.1z"/>
	<rect x="-362.2" y="247.9" class="st1" width="11.1" height="2"/>
	
		<rect x="-379.3" y="269.9" transform="matrix(0.7174 -0.6966 0.6966 0.7174 -297.8323 -186.0463)" class="st1" width="2.2" height="8.5"/>
	
		<rect x="-385.5" y="269.9" transform="matrix(0.7173 -0.6967 0.6967 0.7173 -296.587 -189.0503)" class="st2" width="8.5" height="2.2"/>
	
		<rect x="-376.2" y="272.6" transform="matrix(0.7173 -0.6967 0.6967 0.7173 -299.777 -181.8827)" class="st3" width="4.3" height="11.9"/>
	<polygon class="st0" points="-366,294.9 -372.6,294.9 -372.6,280.6 -367.2,280.6 -366,283 	"/>
	<polygon class="st2" points="-366.2,296.1 -364.7,296.1 -364.7,283.6 -380.8,249.2 -407.9,249.2 -407.9,289 -406.4,289 
		-406.4,250.6 -381.8,250.6 -366.2,283.9 	"/>
	<path class="st4" d="M-422.8,281.1c1-1.6,2.8-2.6,4.7-2.6h15.7c1.5,0,2.7,1.2,2.7,2.7v4.9h20.1l3.5,8.3h7.2v13.2H-426v-6.1v-7.1
		v-8.3L-422.8,281.1z"/>
	<polygon class="st2" points="-426,288.2 -418.2,288.2 -418.2,281.1 -422.8,281.1 -426,286.2 	"/>
	<g>
		<g>
			<defs>
				<path id="SVGID_1_" d="M-422.8,281.1c1-1.6,2.8-2.6,4.7-2.6h15.7c1.5,0,2.7,1.2,2.7,2.7v4.9h20.1l3.5,8.3h7.2v13.2H-426v-6.1
					v-7.1v-8.3L-422.8,281.1z"/>
			</defs>
			<clipPath id="SVGID_2_">
				<use xlink:href="#SVGID_1_"  style="overflow:visible;"/>
			</clipPath>
			<path class="st5" d="M-365.5,298.4h-19.4c-10.9,0-19.8-8.8-19.8-19.8v-0.2h39.2V298.4z"/>
		</g>
	</g>
	<g>
		<g>
			<circle class="st2" cx="-413.2" cy="304.9" r="9.3"/>
			<circle class="st6" cx="-413.2" cy="304.9" r="5.3"/>
			<circle class="st7" cx="-413.2" cy="304.9" r="2.1"/>
		</g>
		<path class="st0" d="M-382.3,304.2c-0.2-0.9-0.3-1.8-0.3-2.7c0-7.3,5.9-13.3,13.3-13.3h13.9v19.3L-382.3,304.2z"/>
		<path class="st4" d="M-383,304.3l1.4-0.3c-0.2-0.8-0.3-1.7-0.3-2.5c0-6.9,5.6-12.5,12.5-12.5h13.9v-1.4h-13.8c-7.7,0-14,6.3-14,14
			C-383.3,302.5-383.2,303.4-383,304.3z"/>
		<g>
			<circle class="st2" cx="-368.5" cy="302.3" r="11.9"/>
			<circle class="st6" cx="-368.5" cy="302.3" r="6.8"/>
			<circle class="st7" cx="-368.5" cy="302.3" r="2.7"/>
		</g>
	</g>
	<rect x="-351.2" y="252.6" class="st2" width="2.6" height="23.6"/>
</g>
</svg>
