<?xml version="1.0" encoding="utf-8"?>
<!-- Generator: Adobe Illustrator 19.0.0, SVG Export Plug-In . SVG Version: 6.00 Build 0)  -->
<svg version="1.1" id="Шар_1" xmlns="http://www.w3.org/2000/svg" xmlns:xlink="http://www.w3.org/1999/xlink" x="0px" y="0px"
	 viewBox="-395.9 225.1 133.7 112.1" style="enable-background:new -395.9 225.1 133.7 112.1;" xml:space="preserve">
<style type="text/css">
	.st0{fill:none;stroke:#171B65;stroke-width:5;stroke-linecap:round;stroke-linejoin:round;stroke-miterlimit:10;}
	.st1{fill:#00B5DA;stroke:#171B65;stroke-width:3;stroke-linecap:round;stroke-linejoin:round;stroke-miterlimit:10;}
	.st2{fill:none;stroke:#171B65;stroke-width:3;stroke-linecap:round;stroke-linejoin:round;stroke-miterlimit:10;}
</style>
<g>
	<polygon class="st0" points="-357.6,333 -336.8,333 -336.8,308.7 -322.1,308.7 -322.1,333 -301.3,333 -301.3,238 -328.1,229 
		-357.6,238 	"/>
	<rect x="-325.4" y="248.1" class="st1" width="12.5" height="12.5"/>
	<rect x="-325.4" y="269.8" class="st1" width="12.5" height="26"/>
	<rect x="-345.4" y="248.1" class="st1" width="12.5" height="12.5"/>
	<rect x="-345.4" y="269.8" class="st1" width="12.5" height="26"/>
	<polyline class="st0" points="-293.5,313.7 -285.5,313.7 -285.5,333 -266.6,333 -266.6,256.8 -293.5,256.8 	"/>
	<rect x="-287.7" y="289.6" class="st2" width="11.3" height="11.3"/>
	<rect x="-287.7" y="268" class="st2" width="11.3" height="11.3"/>
	<polyline class="st0" points="-364.5,256.8 -391.4,256.8 -391.4,333 -372.5,333 -372.5,313.7 -364.5,313.7 	"/>
	<rect x="-381.6" y="268" class="st2" width="11.3" height="11.3"/>
	<rect x="-381.6" y="289.6" class="st2" width="11.3" height="11.3"/>
</g>
</svg>
