<?xml version="1.0" encoding="utf-8"?>
<!-- Generator: Adobe Illustrator 19.0.0, SVG Export Plug-In . SVG Version: 6.00 Build 0)  -->
<svg version="1.1" id="Capa_1" xmlns="http://www.w3.org/2000/svg" xmlns:xlink="http://www.w3.org/1999/xlink" x="0px" y="0px"
	 viewBox="-249 121 460 320" style="enable-background:new -249 121 460 320;" xml:space="preserve">
<style type="text/css">
	.st0{fill-opacity:0;stroke:#FFFFFF;stroke-width:4;stroke-linecap:round;stroke-linejoin:round;}
	.st1{fill:#393939;}
	.st2{fill:#FFFFFF;}
	.st3{fill:#5D9CEC;}
	.st4{fill:#E4695D;}
	.st5{fill:#FFCE53;}
	.st6{fill:#48CFAE;}
	.st7{fill:#DADADA;}
	.st8{fill-opacity:0;stroke:#FFFFFF;stroke-width:4;stroke-linejoin:round;}
</style>
<path class="st0" d="M-27.1,343.1h85.7v6.6h-85.7V343.1z M-114.2,125.5h259.9c3.8,0,6.8,3.1,6.8,6.8v167.2c0,3.8-3.1,6.8-6.8,6.8
	H41.6V317c0,12.5-1.8,9.8,8.5,16.7l8.5,5.7h-85.8l8.5-5.7c10.3-6.9,8.5-4.2,8.5-16.7v-10.6h-104.1c-3.8,0-6.8-3.1-6.8-6.8V132.3
	C-121,128.6-118,125.5-114.2,125.5z M15.7,130c1.4,0,2.5,1.1,2.5,2.5c0,1.4-1.1,2.5-2.5,2.5c0,0,0,0,0,0c-1.4,0-2.5-1.1-2.5-2.5
	C13.3,131.1,14.4,130,15.7,130z"/>
<path class="st1" d="M-27.6,342.6h85.7v6.6h-85.7V342.6z M-114.7,125h259.9c3.8,0,6.8,3.1,6.8,6.8v167.2c0,3.8-3.1,6.8-6.8,6.8H41.1
	v10.6c0,12.5-1.8,9.8,8.5,16.7l8.5,5.7h-85.8l8.5-5.7c10.3-6.9,8.5-4.2,8.5-16.7v-10.6h-104.1c-3.8,0-6.8-3.1-6.8-6.8V131.8
	C-121.5,128.1-118.5,125-114.7,125z M15.2,129.5c1.4,0,2.5,1.1,2.5,2.5c0,1.4-1.1,2.5-2.5,2.5c0,0,0,0,0,0c-1.4,0-2.5-1.1-2.5-2.5
	C12.8,130.6,13.9,129.5,15.2,129.5"/>
<path class="st2" d="M-108.8,137.5h248.1v151.9h-248.1V137.5z"/>
<path class="st3" d="M-66.8,156H98.6c1.4,0,2.6,1.2,2.6,2.6v44.9c0,1.4-1.2,2.6-2.6,2.6H-66.8c-1.4,0-2.6-1.2-2.6-2.6v-44.9
	C-69.4,157.2-68.3,156-66.8,156"/>
<path class="st4" d="M-66.8,210.9h47.7c1.4,0,2.6,1.2,2.6,2.6v26.4c0,1.4-1.2,2.6-2.6,2.6h-47.7c-1.4,0-2.6-1.2-2.6-2.6v-26.4
	C-69.4,212-68.3,210.9-66.8,210.9"/>
<path class="st5" d="M-7.9,210.9h47.7c1.4,0,2.6,1.2,2.6,2.6v26.4c0,1.4-1.2,2.6-2.6,2.6H-7.9c-1.4,0-2.6-1.2-2.6-2.6v-26.4
	C-10.5,212-9.4,210.9-7.9,210.9"/>
<path class="st6" d="M51,210.9h47.7c1.4,0,2.6,1.2,2.6,2.6v26.4c0,1.4-1.2,2.6-2.6,2.6H51c-1.4,0-2.6-1.2-2.6-2.6v-26.4
	C48.4,212,49.5,210.9,51,210.9"/>
<path class="st7" d="M-10.5,248.7h52.9v3.1h-52.9L-10.5,248.7z M-10.5,255.9h52.9v3.1h-52.9L-10.5,255.9z M-10.5,263.1h39.1v3.1
	h-39.1L-10.5,263.1z M-10.5,270.3h52.9v3.1h-52.9L-10.5,270.3z M-10.5,277.5h28.9v3.1h-28.9V277.5z M48.4,248.7h52.9v3.1H48.4V248.7
	z M48.4,255.9h47.1v3.1H48.4V255.9z M48.4,263.1h52.9v3.1H48.4V263.1z M48.4,270.3h52.9v3.1H48.4V270.3z M48.4,277.5h21.3v3.1H48.4
	V277.5z M-69.9,277.5h52.9v3.1h-52.9V277.5z M-69.9,270.3h39.1v3.1h-39.1V270.3z M-69.9,263.1h52.9v3.1h-52.9V263.1z M-69.9,255.9
	h48.6v3.1h-48.6V255.9z M-69.9,248.7h36.5v3.1h-36.5V248.7z"/>
<path class="st8" d="M-239.5,400.5H1c1.6,0,2.8,1.3,2.8,2.8v6.5c0,1.6-1.3,2.8-2.8,2.8h-240.5c-1.6,0-2.8-1.3-2.8-2.8v-6.5
	C-242.3,401.7-241.1,400.5-239.5,400.5z M-218.9,266.2h199.4c3.6,0,6.5,2.9,6.5,6.5v118.3c0,3.6-2.9,6.5-6.5,6.5h-199.4
	c-3.6,0-6.5-2.9-6.5-6.5V272.7C-225.4,269.1-222.5,266.2-218.9,266.2z M-119.2,270.4c1.3,0,2.4,1,2.4,2.3c0,1.3-1,2.4-2.3,2.4
	c0,0-0.1,0-0.1,0c-1.3,0-2.3-1.1-2.3-2.4C-121.5,271.5-120.5,270.5-119.2,270.4z"/>
<path class="st1" d="M-240,400H0.5c1.6,0,2.8,1.3,2.8,2.8v6.5c0,1.6-1.3,2.8-2.8,2.8H-240c-1.6,0-2.8-1.3-2.8-2.8v-6.5
	C-242.8,401.2-241.6,400-240,400z M-219.4,265.7H-20c3.6,0,6.5,2.9,6.5,6.5v118.3c0,3.6-2.9,6.5-6.5,6.5h-199.4
	c-3.6,0-6.5-2.9-6.5-6.5V272.2C-225.9,268.6-223,265.7-219.4,265.7z M-119.7,269.9c1.3,0,2.4,1,2.4,2.3s-1,2.4-2.3,2.4
	c0,0-0.1,0-0.1,0c-1.3,0-2.3-1.1-2.3-2.4C-122,271-121,270-119.7,269.9"/>
<path class="st2" d="M-215.6,278.3h191.8v108.3h-191.8V278.3z"/>
<path class="st3" d="M-183.2,302.8H-56c1.1,0,2,0.9,2,2v34.6c0,1.1-0.9,2-2,2h-127.2c-1.1,0-2-0.9-2-2v-34.6
	C-185.2,303.7-184.3,302.8-183.2,302.8"/>
<path class="st4" d="M-183.2,345h36.7c1.1,0,2,0.9,2,2v20.3c0,1.1-0.9,2-2,2h-36.7c-1.1,0-2-0.9-2-2V347
	C-185.2,345.9-184.3,345-183.2,345"/>
<path class="st5" d="M-137.9,345h36.7c1.1,0,2,0.9,2,2v20.3c0,1.1-0.9,2-2,2h-36.7c-1.1,0-2-0.9-2-2V347
	C-139.9,345.9-139,345-137.9,345"/>
<path class="st6" d="M-92.6,345h36.7c1.1,0,2,0.9,2,2v20.3c0,1.1-0.9,2-2,2h-36.7c-1.1,0-2-0.9-2-2V347
	C-94.6,345.9-93.7,345-92.6,345"/>
<path class="st7" d="M-139.9,374.1h40.7v2.3h-40.7V374.1z M-139.9,379.6h40.7v2.3h-40.7V379.6z M-94.6,374.1h40.7v2.3h-40.7
	L-94.6,374.1z M-94.6,379.6h36.2v2.3h-36.2V379.6z M-185.6,379.6h37.4v2.3h-37.4V379.6z M-185.6,374.1h28.1v2.3h-28.1V374.1z"/>
<path class="st0" d="M199.2,231.5h-96.4c-3.4,0-6.2,2.8-6.2,6.2V367c0,3.4,2.8,6.2,6.2,6.2h96.4c3.4,0,6.2-2.8,6.2-6.2V237.7
	C205.3,234.3,202.6,231.5,199.2,231.5z M151,235.2c-1.2,0-2.2,1-2.2,2.2c0,1.2,1,2.2,2.2,2.2l0,0c1.2,0,2.2-1,2.2-2.2
	C153.2,236.2,152.2,235.2,151,235.2z"/>
<path class="st1" d="M198.7,231h-96.4c-3.4,0-6.2,2.8-6.2,6.2v129.3c0,3.4,2.8,6.2,6.2,6.2h96.4c3.4,0,6.2-2.8,6.2-6.2V237.2
	C204.8,233.8,202.1,231,198.7,231z M150.5,234.7c-1.2,0-2.2,1-2.2,2.2c0,1.2,1,2.2,2.2,2.2l0,0c1.2,0,2.2-1,2.2-2.2
	C152.7,235.7,151.7,234.7,150.5,234.7"/>
<path class="st2" d="M107.5,243h85.9v117.7h-85.9V243z"/>
<path class="st3" d="M115.5,256.8h70.3c1.2,0,2.1,1,2.1,2.1v36.7c0,1.2-1,2.1-2.1,2.1h-70.3c-1.2,0-2.1-0.9-2.1-2.1v-36.7
	C113.3,257.8,114.3,256.8,115.5,256.8"/>
<path class="st4" d="M115.5,301.6h31.3c1.2,0,2.1,1,2.1,2.1v21.5c0,1.2-1,2.1-2.1,2.1h-31.3c-1.2,0-2.1-1-2.1-2.1v-21.5
	C113.3,302.5,114.3,301.6,115.5,301.6"/>
<path class="st5" d="M154.5,301.6h31.3c1.2,0,2.1,1,2.1,2.1v21.5c0,1.2-1,2.1-2.1,2.1h-31.3c-1.2,0-2.1-1-2.1-2.1v-21.5
	C152.3,302.5,153.3,301.6,154.5,301.6"/>
<path class="st7" d="M152.3,332.5h35.6v2.5h-35.6V332.5z M152.3,338.3h35.6v2.5h-35.6V338.3z M152.3,344.2h26.3v2.5h-26.3V344.2z
	 M152.3,350.1h35.6v2.5h-35.6V350.1z M152.3,356h19.4v2.5h-19.4V356z M113.1,356h35.6v2.5h-35.6V356z M113.1,350.1h26.3v2.5h-26.3
	V350.1z M113.1,344.2h35.6v2.5h-35.6V344.2z M113.1,338.3h32.7v2.5h-32.7V338.3z M113.1,332.5h24.5v2.5h-24.5V332.5z"/>
<path class="st0" d="M134.7,339.9H91.9c-3.8,0-6.8,3.1-6.8,6.8v84c0,3.7,3.1,6.8,6.8,6.8h42.8c3.7,0,6.8-3.1,6.8-6.8v-84
	C141.5,343,138.5,339.9,134.7,339.9z"/>
<path class="st1" d="M134.2,339.4H91.4c-3.8,0-6.8,3.1-6.8,6.8v84c0,3.7,3.1,6.8,6.8,6.8h42.8c3.7,0,6.8-3.1,6.8-6.8v-84
	C141,342.5,138,339.4,134.2,339.4"/>
<path class="st2" d="M112.8,423.2c-2.2,0-4,1.8-4,3.9s1.8,4,3.9,4c0,0,0,0,0,0c2.2,0,3.9-1.8,3.9-4
	C116.7,424.9,115,423.2,112.8,423.2 M121.5,347.6H104c-0.6,0-1.2,0.5-1.2,1.2c0,0.6,0.5,1.2,1.2,1.2h17.5c0.6,0,1.1-0.6,1.1-1.2
	C122.6,348.1,122.1,347.6,121.5,347.6 M89.8,354.3h45.9v60.9H89.8V354.3z"/>
<path class="st3" d="M130.4,359.5H95c-0.5,0-0.9,0.4-0.9,0.9v16.4c0,0.5,0.4,0.9,0.9,0.9h35.4c0.5,0,0.9-0.4,0.9-0.9v-16.4
	C131.4,359.9,130.9,359.5,130.4,359.5"/>
<path class="st4" d="M129.2,380.7H96c-1.1,0-1.9,0.9-1.9,1.9v17.1c0,1.1,0.9,1.9,1.9,1.9h33.2c1.1,0,1.9-0.9,1.9-1.9v-17.1
	C131.1,381.6,130.3,380.7,129.2,380.7"/>
<path class="st7" d="M94,409.6h32.7v2.2H94V409.6z M94,404.4h24.5v2.2H94V404.4z"/>
<path class="st2" d="M150.5,233.1c-2.2,0-3.9,1.8-3.9,3.9c0,0,0,0,0,0c0,2.2,1.8,3.9,3.9,3.9s3.9-1.8,3.9-3.9
	C154.4,234.9,152.7,233.1,150.5,233.1 M-119.7,268.4c-2.2,0-4,1.8-4,3.9c0,2.2,1.8,4,3.9,4c0,0,0,0,0,0c2.2,0,4-1.8,4-3.9
	C-115.8,270.1-117.5,268.4-119.7,268.4C-119.7,268.4-119.7,268.4-119.7,268.4 M15.2,127.7c-2.2,0-4,1.7-4,3.9c0,2.2,1.7,4,3.9,4
	c0,0,0.1,0,0.1,0c2.2,0,3.9-1.8,3.9-4C19.1,129.4,17.4,127.7,15.2,127.7"/>
</svg>
