<?xml version="1.0" encoding="utf-8"?>
<!-- Generator: Adobe Illustrator 18.1.0, SVG Export Plug-In . SVG Version: 6.00 Build 0)  -->
<svg xmlns="http://www.w3.org/2000/svg" xmlns:xlink="http://www.w3.org/1999/xlink" version="1.1" id="Layer_1" x="0px" y="0px" viewBox="6 -6 512 512" xml:space="preserve">
<g>
	<path fill="#568398" d="M38,32V20c0-5.5,4.5-10,10-10h300c5.5,0,10,4.5,10,10v12c0,5.5-4.5,10-10,10h-6v48h-16V42H70v188.2   c0,2.1,1.7,3.8,3.8,3.8h248.5c2.1,0,3.8-1.7,3.8-3.8V186h16v48c0,8.8-7.2,16-16,16H70c-8.8,0-16-7.2-16-16V42h-6   C42.5,42,38,37.5,38,32z M150,202V74h-32v128H150z M198,202v-80h-32v80H198z M246,202v-48h-32v48H246z M446,106   c22.1,0,40-17.9,40-40s-17.9-40-40-40s-40,17.9-40,40S423.9,106,446,106z M78,394c22.1,0,40-17.9,40-40s-17.9-40-40-40   s-40,17.9-40,40S55.9,394,78,394z M198,354c0,22.1,17.9,40,40,40s40-17.9,40-40s-17.9-40-40-40S198,331.9,198,354z M510.1,132.5   c-5.8-6.7-14-10.5-22.7-10.5h-5.2l-19.4,39.8l-10.5-17.5c2.2-1.6,5.7-5.8,5.7-14.8c0-6.4-5.1-7.5-11.8-7.5s-12.2,1.1-12.2,7.5   c0,8.9,3.3,13.2,5.5,14.8l-10.3,17.5L409.8,122H406h-16h-96c-8.8,0-16,7.2-16,16c0,8.8,7.2,16,16,16h96v128h96v-32h3.2   c15.4,0,28.8-11.4,28.8-27.8c0,0,0-54.5,0-65.9C518,144.8,515.9,139.2,510.1,132.5z M438,354c0-22.1-17.9-40-40-40s-40,17.9-40,40   s17.9,40,40,40S438,376.1,438,354z M6,474h144v-28.2c0-19.7-16-35.8-35.8-35.8H41.8C22,410,6,426,6,445.8V474z M166,474h144v-28.2   c0-19.7-16-35.8-35.8-35.8h-72.5c-19.7,0-35.8,16-35.8,35.8V474z M326,474h144v-28.2c0-19.7-16-35.8-35.8-35.8h-72.5   c-19.7,0-35.8,16-35.8,35.8V474z"/>
</g>
</svg>
