<?xml version="1.0" encoding="utf-8"?>
<!-- Generator: Adobe Illustrator 19.0.0, SVG Export Plug-In . SVG Version: 6.00 Build 0)  -->
<svg version="1.1" id="Capa_1" xmlns="http://www.w3.org/2000/svg" xmlns:xlink="http://www.w3.org/1999/xlink" x="0px" y="0px"
	 viewBox="0 0 62.4 62.4" style="enable-background:new 0 0 62.4 62.4;" xml:space="preserve">
<style type="text/css">
	.st0{fill:#97812C;}
	.st1{fill:#FFFFFF;}
</style>
<g>
	<circle id="XMLID_1_" class="st0" cx="31.2" cy="31.2" r="31.2"/>
	<g id="fa-user_3_">
		<path id="XMLID_3_" class="st1" d="M46.6,33.9c0,0.3-0.2,0.7-0.6,0.7l-3.7,0.6c-0.2,0.6-0.5,1.2-0.8,1.8c0.7,1,1.4,1.9,2.1,2.8
			c0.1,0.1,0.2,0.3,0.2,0.5s-0.1,0.3-0.2,0.5c-0.5,0.6-3.2,3.6-3.9,3.6c-0.2,0-0.4-0.1-0.5-0.2l-2.8-2.2c-0.6,0.3-1.2,0.6-1.8,0.8
			c-0.1,1.2-0.3,2.5-0.6,3.7c-0.1,0.3-0.4,0.6-0.7,0.6H29c-0.4,0-0.7-0.3-0.7-0.6l-0.6-3.7c-0.6-0.2-1.2-0.4-1.8-0.7l-2.8,2.1
			c-0.1,0.1-0.3,0.2-0.5,0.2c-0.2,0-0.4-0.1-0.5-0.2c-1.1-1-2.5-2.2-3.3-3.4c-0.1-0.1-0.1-0.3-0.1-0.5c0-0.2,0.1-0.3,0.2-0.5
			c0.7-0.9,1.4-1.8,2.1-2.7c-0.3-0.6-0.6-1.3-0.8-2l-3.7-0.5c-0.3-0.1-0.6-0.4-0.6-0.7v-4.4c0-0.3,0.2-0.7,0.5-0.7l3.7-0.6
			c0.2-0.6,0.5-1.2,0.8-1.8c-0.7-1-1.4-1.9-2.1-2.8c-0.1-0.1-0.2-0.3-0.2-0.5c0-0.2,0.1-0.3,0.2-0.5c0.5-0.7,3.2-3.6,3.9-3.6
			c0.2,0,0.4,0.1,0.5,0.2l2.8,2.1c0.6-0.3,1.2-0.6,1.8-0.8c0.1-1.2,0.3-2.5,0.6-3.7c0.1-0.3,0.4-0.6,0.7-0.6h4.4
			c0.4,0,0.7,0.3,0.7,0.6l0.6,3.7c0.6,0.2,1.2,0.4,1.8,0.7l2.8-2.1c0.1-0.1,0.3-0.2,0.5-0.2s0.4,0.1,0.5,0.2c1.1,1,2.5,2.2,3.3,3.4
			c0.1,0.1,0.1,0.3,0.1,0.4c0,0.2-0.1,0.3-0.2,0.5c-0.7,0.9-1.4,1.8-2.1,2.7c0.3,0.6,0.6,1.3,0.8,2l3.7,0.6c0.3,0.1,0.6,0.4,0.6,0.7
			V33.9z M31.2,26.5c-2.8,0-5.1,2.3-5.1,5.1c0,2.8,2.3,5.1,5.1,5.1c2.8,0,5.1-2.3,5.1-5.1C36.3,28.8,34,26.5,31.2,26.5z"/>
	</g>
</g>
<g id="XMLID_2_">
</g>
<g id="XMLID_6_">
</g>
<g id="XMLID_7_">
</g>
<g id="XMLID_8_">
</g>
<g id="XMLID_9_">
</g>
<g id="XMLID_10_">
</g>
</svg>
