<?xml version="1.0" encoding="utf-8"?>
<!-- Generator: Adobe Illustrator 19.0.0, SVG Export Plug-In . SVG Version: 6.00 Build 0)  -->
<svg version="1.1" id="Layer_1" xmlns="http://www.w3.org/2000/svg" xmlns:xlink="http://www.w3.org/1999/xlink" x="0px" y="0px"
	 viewBox="-256 196 319 177" style="enable-background:new -256 196 319 177;" xml:space="preserve">
<style type="text/css">
	.st0{fill:#FFFFFF;stroke:#8F9193;stroke-width:2;stroke-miterlimit:10;}
	.st1{opacity:0.2;fill:#C6C6C6;enable-background:new    ;}
	.st2{fill:#C1C7C9;stroke:#636872;stroke-width:2;stroke-miterlimit:10;}
	.st3{fill:#D7E7F4;stroke:#8F9193;stroke-width:2;stroke-miterlimit:10;}
	.st4{fill:#E8E8E8;}
	.st5{fill:none;stroke:#636872;stroke-width:2;stroke-miterlimit:10;}
	.st6{fill:none;stroke:#8F9193;stroke-width:2;stroke-miterlimit:10;}
	.st7{opacity:0.1;fill:#666666;enable-background:new    ;}
	.st8{fill:#5FB5E8;stroke:#636872;stroke-width:2;stroke-miterlimit:10;}
	.st9{fill:#F5F6F7;stroke:#636872;stroke-width:2;stroke-miterlimit:10;}
	.st10{fill:#F4B167;stroke:#636872;stroke-width:2;stroke-miterlimit:10;}
	.st11{fill:#FFFFFF;}
	.st12{opacity:0.3;}
	.st13{fill:none;stroke:#FFFFFF;stroke-width:3;stroke-linecap:round;stroke-miterlimit:10;}
	.st14{opacity:0.4;}
	.st15{fill:none;stroke:#FFFFFF;stroke-width:2;stroke-linecap:round;stroke-miterlimit:10;}
	.st16{fill:#F2DE68;stroke:#636872;stroke-width:2;stroke-miterlimit:10;}
	.st17{fill:#FFFFFF;stroke:#636872;stroke-width:2;stroke-miterlimit:10;}
	.st18{fill:none;stroke:#636872;stroke-miterlimit:10;}
	.st19{fill:#E6E6E6;stroke:#636872;stroke-width:2;stroke-miterlimit:10;}
	.st20{fill:none;stroke:#636872;stroke-width:2;stroke-linecap:round;stroke-miterlimit:10;}
</style>
<g id="XMLID_5583_">
	<g id="XMLID_5595_">
		<circle id="XMLID_5885_" class="st0" cx="-206.5" cy="334.1" r="8.5"/>
		<circle id="XMLID_5596_" class="st0" cx="-206.5" cy="334.1" r="4.5"/>
	</g>
	<path id="XMLID_5886_" class="st0" d="M-169,320h-34v27.4c0,1.7,0.6,3.4,1.8,4.6l8.8,10h23.4V320z"/>
</g>
<path id="XMLID_5598_" class="st1" d="M-201.5,295h18.2c1.2,0,2.1,0.8,2.1,2s-0.9,2-2.1,2h-1.4c-1,0-1.5,0.8-1.5,2s0.6,2,1.5,2h3.5
	c1.2,0,2.1,0.9,2.1,2c0,1.2-0.9,2.1-2.1,2.1c-0.7,0-1.1,0.8-1.1,1.9c0,1.2,0.4,1.9,1.1,1.9h2.8c1.2,0,2.1,0.8,2.1,2s-0.9,2-2.1,2
	h-11.2c-1.2,0-2.1-0.8-2.1-2s0.9-2,2.1-2h0.7c0.4,0,0.7-0.8,0.7-2s-0.3-2-0.7-2h-7.7c-1.2,0-2.1-0.8-2.1-2s0.9-2,2.1-2h0.7
	c0.6,0,1-0.8,1-2s-0.4-2-1-2h-5.6c-1.2,0-2.1-0.8-2.1-2C-203.6,295.8-202.6,295-201.5,295z"/>
<path id="XMLID_5592_" class="st2" d="M-16,356h-156V254c0-3.8,3.2-7,7-7h142c3.9,0,7,3.2,7,7V356z"/>
<rect id="XMLID_5591_" x="-163" y="257" class="st3" width="138" height="99"/>
<polygon id="XMLID_5887_" class="st4" points="-177,321 -177,346 -195,350 -173,350 -173,321 "/>
<line id="XMLID_324_" class="st5" x1="-251" y1="362" x2="57" y2="362"/>
<polygon id="XMLID_5590_" class="st0" points="-47,351 -140,351 -140,229 -63,229 -63,244 -47,244 "/>
<line id="XMLID_5585_" class="st6" x1="-118" y1="324" x2="-82" y2="324"/>
<line id="XMLID_325_" class="st6" x1="-118" y1="313" x2="-66" y2="313"/>
<g id="XMLID_333_">
	<path id="XMLID_351_" class="st7" d="M-22.7,211H-142c-1.7,0-3,1.2-3,2.9v74.4c0,1.7,1.3,2.6,3,2.6h13v17.7l16.6-17.7h89.7
		c1.7,0,3.7-1,3.7-2.6v-74.4C-19,212.2-21,211-22.7,211z"/>
	<path id="XMLID_322_" class="st8" d="M-25.7,206H-145c-1.7,0-3,1.2-3,2.9v74.4c0,1.7,1.3,2.6,3,2.6h13v17.7l16.6-17.7h89.7
		c1.7,0,3.7-1,3.7-2.6v-74.4C-22,207.2-24,206-25.7,206z"/>
	<path id="XMLID_352_" class="st7" d="M-66.9,271H-17c0.9,0,0.7,44,0.7,44h-50.6c-0.9,0-1.1-1.3-1.1-2.2v-40.3
		C-68,271.6-67.8,271-66.9,271z"/>
	<circle id="XMLID_316_" class="st9" cx="-109.3" cy="244.6" r="6.1"/>
	<circle id="XMLID_318_" class="st9" cx="-85.9" cy="244.6" r="6.1"/>
	<circle id="XMLID_320_" class="st9" cx="-64.5" cy="244.6" r="6.1"/>
	<path id="XMLID_321_" class="st10" d="M-60.9,266H3.7c0.9,0,2.3,0.6,2.3,1.5v40.3c0,0.9-1.4,2.2-2.3,2.2H-4v8.8l-8.3-8.8h-48.6
		c-0.9,0-1.1-1.3-1.1-2.2v-40.3C-62,266.6-61.8,266-60.9,266z"/>
	<g id="XMLID_373_">
		<path id="XMLID_374_" class="st11" d="M-37.2,298.4l1.7-5.1h-3.1l-1.7,5.1h-1.8l1.7-5.1h-3l0.5-1.5h3l1.9-5.6h-3l0.5-1.5h3.1
			l1.7-5.1h1.8l-1.7,5.1h3.1l1.7-5.1h1.7l-1.7,5.1h3l-0.4,1.5h-3.1l-1.9,5.6h3.1l-0.5,1.5h-3.2l-1.7,5.1H-37.2z M-33.1,286.1h-3.1
			l-1.9,5.6h3.1L-33.1,286.1z"/>
		<path id="XMLID_377_" class="st11" d="M-19.8,290.8c0-3.6,5.1-3.9,5.1-6.9c0-1.4-1.1-2.6-3.3-2.6c-2.1,0-3.5,0.9-4.5,2.3l-1.4-1.5
			c1.4-1.8,3.4-2.9,6.1-2.9c3.4,0,5.5,1.9,5.5,4.4c0,4.3-5.5,4.6-5.5,7.4c0,0.5,0.3,1,0.7,1.4l-1.7,0.8
			C-19.5,292.5-19.8,291.7-19.8,290.8z M-19.7,297.1c0-0.8,0.7-1.6,1.6-1.6c0.8,0,1.6,0.7,1.6,1.6c0,0.8-0.7,1.6-1.6,1.6
			S-19.7,297.9-19.7,297.1z"/>
	</g>
</g>
<g id="XMLID_426_">
	<circle id="XMLID_303_" class="st8" cx="-142.5" cy="332.5" r="13.5"/>
	<g id="XMLID_330_">
		<path id="XMLID_331_" class="st11" d="M-139.2,336.1l-0.2,0.8c-1.3,1.4-2.4,2.1-3.5,2.1c-0.8,0-1.3-0.4-1.3-1.3
			c0-0.3,0.1-0.8,0.2-1.5l0.6-3.1c0.2-0.9,0.2-1.4,0.2-1.7c0-0.5-0.2-0.7-0.6-0.7c-0.3,0-0.7,0.1-1.4,0.3l0.1-0.5l4.3-1.4l-0.7,2.8
			l-0.9,4.3c-0.1,0.7-0.2,1.1-0.2,1.3c0,0.4,0.2,0.6,0.5,0.6C-141.2,338.1-140.4,337.4-139.2,336.1z M-142.4,327.5l0.6-1.2l2.5-1.6
			l-0.8,1.6L-142.4,327.5z"/>
	</g>
</g>
<g id="XMLID_337_" class="st12">
	<line id="XMLID_317_" class="st13" x1="-139" y1="215" x2="-125" y2="215"/>
	<line id="XMLID_339_" class="st13" x1="-120" y1="215" x2="-113" y2="215"/>
</g>
<g id="XMLID_346_" class="st14">
	<line id="XMLID_348_" class="st15" x1="-54" y1="273" x2="-46.5" y2="273"/>
	<line id="XMLID_347_" class="st15" x1="-43.8" y1="273" x2="-40" y2="273"/>
</g>
<g id="XMLID_421_">
	<path id="XMLID_340_" class="st16" d="M21,361h-4c-1.7,0-3-1.3-3-3v-26c0-1.7,1.3-3,3-3h4c1.7,0,3,1.3,3,3v26
		C24,359.7,22.7,361,21,361z"/>
	<polygon id="XMLID_419_" class="st17" points="16,291 22,291 22,300 21,301 21,329 17,329 17,301 16,300 	"/>
	<line id="XMLID_420_" class="st18" x1="17.5" y1="336" x2="17.5" y2="357"/>
	<line id="XMLID_422_" class="st18" x1="20.5" y1="336" x2="20.5" y2="357"/>
</g>
<path id="XMLID_427_" class="st8" d="M40,344.6v-35c3.5-1.2,6-4.6,6-8.5c0-3.5-2-6.6-5-8.1v5.1c0,2.2-1.8,4-4,4s-4-1.8-4-4V293
	c-3,1.5-5,4.5-5,8.1c0,3.9,2.5,7.2,6,8.5v35c-3.5,1.2-6,4.6-6,8.5c0,3.5,2,6.6,5,8.1v-5.1c0-2.2,1.8-4,4-4s4,1.8,4,4v5.1
	c3-1.5,5-4.5,5-8.1C46,349.1,43.5,345.8,40,344.6z"/>
<path id="XMLID_5593_" class="st2" d="M-5.6,362h-177.9c-1.5,0-2.9-1.2-3.8-2.5l-5.1-5.4c-0.2-0.2-0.3,0-0.4-0.3l-0.7-2.8H3.3v1.8
	c0,0.4,0.1,0.8-0.2,1.1l-5.8,5.9C-3.4,360.9-4.4,362-5.6,362z"/>
<polygon id="XMLID_5535_" class="st19" points="-83.1,356 -105.1,356 -108.7,351 -79.4,351 "/>
<line id="XMLID_5597_" class="st20" x1="-49.7" y1="357" x2="-0.7" y2="357"/>
<line id="XMLID_5600_" class="st20" x1="-188.7" y1="357" x2="-139.7" y2="357"/>
</svg>
