<?xml version="1.0" encoding="utf-8"?>
<!-- Generator: Adobe Illustrator 19.0.0, SVG Export Plug-In . SVG Version: 6.00 Build 0)  -->
<svg version="1.1" id="Layer_1" xmlns="http://www.w3.org/2000/svg" xmlns:xlink="http://www.w3.org/1999/xlink" x="0px" y="0px"
	 viewBox="-279 171 400 220" style="enable-background:new -279 171 400 220;" xml:space="preserve">
<style type="text/css">
	.st0{fill:#82CDFF;stroke:#002869;stroke-width:7.0187;stroke-miterlimit:10;}
	.st1{fill:none;stroke:#002869;stroke-width:4.3539;stroke-miterlimit:10;}
	.st2{fill:#3264C8;stroke:#002869;stroke-width:6.66;stroke-miterlimit:10;}
	.st3{fill:#82CDFF;stroke:#002869;stroke-width:6.66;stroke-miterlimit:10;}
	.st4{fill:none;stroke:#FFFFFF;stroke-width:5.328;stroke-miterlimit:10;}
	.st5{fill:#38ACFF;stroke:#002869;stroke-width:6.66;stroke-miterlimit:10;}
	.st6{fill:none;stroke:#FFFFFF;stroke-width:10.656;stroke-miterlimit:10;}
	.st7{fill:none;stroke:#FFFFFF;stroke-width:7.992;stroke-miterlimit:10;}
</style>
<g>
	<path class="st0" d="M-68.2,259c0-0.2,0-0.4,0-0.6c0-22.5-18.3-40.8-40.8-40.8c-7.3,0-14.1,1.9-20.1,5.3c0-0.5,0-1.1,0-1.6
		c0-25-20.3-45.3-45.3-45.3c-22.4,0-41,16.3-44.7,37.6c-2-0.4-4.2-0.6-6.3-0.6c-17.7,0-32.1,14.4-32.1,32.1c0,5.2,1.2,10,3.4,14.4
		c-10.5,2-18.5,11.2-18.5,22.3c0,12.5,10.1,22.7,22.7,22.7h178.3c0,0,2,0,3,0c12.5,0,22.7-10.1,22.7-22.7
		C-46,269.3-55.9,259.2-68.2,259z"/>
	<path class="st1" d="M-211.1,388.4"/>
	<g>
		<g>
			<rect x="-271.5" y="320.7" class="st2" width="36.1" height="66.3"/>
			<rect x="-271.5" y="333.4" class="st3" width="36.1" height="41"/>
		</g>
		<polyline class="st4" points="-244.5,349 -255.4,359.9 -260.9,354.5 		"/>
	</g>
	<g>
		<path class="st3" d="M-195.8,387.1h-18.9c-4.5,0-8.2-3.7-8.2-8.2V360c0-4.5,3.7-8.2,8.2-8.2h18.9c4.5,0,8.2,3.7,8.2,8.2v18.9
			C-187.6,383.4-191.2,387.1-195.8,387.1z"/>
		<polyline class="st4" points="-197,364 -207.9,374.9 -213.4,369.4 		"/>
	</g>
	<g>
		<g>
			<rect x="6.2" y="341.7" class="st2" width="28.8" height="26.6"/>
			<rect x="-73.8" y="221.6" class="st5" width="188.6" height="120.1"/>
			<rect x="-19.3" y="369.3" class="st5" width="79.7" height="17.7"/>
		</g>
		<polyline class="st6" points="48.1,265.2 12.2,301.1 -5.7,283.1 		"/>
	</g>
	<polyline class="st6" points="-134.4,240.7 -170.2,276.6 -188.2,258.6 	"/>
	<g>
		<g>
			<path class="st2" d="M-86.3,305.2c0-7.2,5.8-13,13-13l0,0c7.2,0,13,5.8,13,13H-86.3z"/>
			<path class="st5" d="M-149.6,374.1h37.4c0,7.2,5.8,13,13,13l0,0c7.2,0,13-5.8,13-13v-13v-56c0-7.2,5.8-13,13-13l0,0h-63.3
				c-7.2,0-13,5.8-13,13L-149.6,374.1L-149.6,374.1z"/>
			<path class="st3" d="M-99.3,387.1h-63.3l0,0c-7.2,0-13-5.8-13-13h63.3C-112.2,381.3-106.4,387.1-99.3,387.1L-99.3,387.1z"/>
		</g>
		<polyline class="st7" points="-99.3,322.7 -123.5,346.9 -135.6,334.8 		"/>
	</g>
</g>
</svg>
