<?xml version="1.0" encoding="utf-8"?>
<!-- Generator: Adobe Illustrator 19.0.0, SVG Export Plug-In . SVG Version: 6.00 Build 0)  -->
<svg version="1.1" id="Capa_1" xmlns="http://www.w3.org/2000/svg" xmlns:xlink="http://www.w3.org/1999/xlink" x="0px" y="0px"
	 viewBox="0 0 62.4 62.4" style="enable-background:new 0 0 62.4 62.4;" xml:space="preserve">
<style type="text/css">
	.st0{fill:#9B842A;}
	.st1{fill:#FFFFFF;}
</style>
<g>
	<circle class="st0" cx="31.2" cy="31.2" r="31.2"/>
	<g id="fa-support">
		<path id="XMLID_54_" class="st1" d="M24.2,15.1c2.2-0.9,4.5-1.4,7-1.4c2.4,0,4.8,0.5,7,1.4s4.1,2.2,5.7,3.8
			c1.6,1.6,2.9,3.5,3.8,5.7c0.9,2.2,1.4,4.5,1.4,7s-0.5,4.8-1.4,7c-0.9,2.2-2.2,4.1-3.8,5.7c-1.6,1.6-3.5,2.9-5.7,3.8
			c-2.2,0.9-4.5,1.4-7,1.4c-2.4,0-4.8-0.5-7-1.4c-2.2-0.9-4.1-2.2-5.7-3.8c-1.6-1.6-2.9-3.5-3.8-5.7c-0.9-2.2-1.4-4.5-1.4-7
			s0.5-4.8,1.4-7c0.9-2.2,2.2-4.1,3.8-5.7C20.1,17.3,22,16,24.2,15.1z M17.6,38.8l3.9-3.9c-0.4-1.1-0.6-2.2-0.6-3.3
			c0-1.1,0.2-2.3,0.6-3.3l-3.9-3.9c-1.2,2.3-1.8,4.7-1.8,7.2S16.4,36.6,17.6,38.8z M25.7,37c1.5,1.5,3.3,2.3,5.4,2.3
			c2.1,0,3.9-0.8,5.4-2.3s2.3-3.3,2.3-5.4c0-2.1-0.8-3.9-2.3-5.4s-3.3-2.3-5.4-2.3c-2.1,0-3.9,0.8-5.4,2.3s-2.3,3.3-2.3,5.4
			C23.5,33.7,24.2,35.5,25.7,37z M31.2,16.2c-2.5,0-4.9,0.6-7.2,1.8l3.9,3.9c1.1-0.4,2.2-0.6,3.3-0.6c1.1,0,2.3,0.2,3.3,0.6l3.9-3.9
			C36.1,16.8,33.7,16.2,31.2,16.2z M31.2,47c2.5,0,4.9-0.6,7.2-1.8l-3.9-3.9c-1.1,0.4-2.2,0.6-3.3,0.6c-1.1,0-2.3-0.2-3.3-0.6
			L24,45.2C26.2,46.4,28.7,47,31.2,47z M40.9,34.9l3.9,3.9c1.2-2.3,1.8-4.7,1.8-7.2s-0.6-4.9-1.8-7.2l-3.9,3.9
			c0.4,1.1,0.6,2.2,0.6,3.3C41.5,32.7,41.3,33.9,40.9,34.9z"/>
	</g>
</g>
<g id="XMLID_53_">
</g>
<g id="XMLID_61_">
</g>
<g id="XMLID_62_">
</g>
<g id="XMLID_63_">
</g>
<g id="XMLID_64_">
</g>
<g id="XMLID_65_">
</g>
<g id="XMLID_66_">
</g>
<g id="XMLID_67_">
</g>
<g id="XMLID_68_">
</g>
<g id="XMLID_69_">
</g>
<g id="XMLID_70_">
</g>
<g id="XMLID_71_">
</g>
<g id="XMLID_72_">
</g>
<g id="XMLID_73_">
</g>
<g id="XMLID_74_">
</g>
</svg>
