<?xml version="1.0" encoding="utf-8"?>
<!-- Generator: Adobe Illustrator 19.0.0, SVG Export Plug-In . SVG Version: 6.00 Build 0)  -->
<svg version="1.1" id="Capa_1" xmlns="http://www.w3.org/2000/svg" xmlns:xlink="http://www.w3.org/1999/xlink" x="0px" y="0px"
	 viewBox="0 0 62.4 62.4" style="enable-background:new 0 0 62.4 62.4;" xml:space="preserve">
<style type="text/css">
	.st0{fill:#97812C;}
	.st1{fill:#FFFFFF;}
</style>
<g>
	<circle id="XMLID_1_" class="st0" cx="31.2" cy="31.2" r="31.2"/>
	<g id="fa-user_13_">
		<path id="XMLID_3_" class="st1" d="M38.3,40.3c-0.3,0-0.4,0-0.6,0c-1.2,0-2.2-0.4-2.8-1.1c-0.4-0.4-0.6-1-0.7-1.7
			c-1.2,1.6-3.4,3.1-6.1,3.1c-4.3,0-6.8-2.7-6.8-7.3c0-6.4,4.4-11.6,9.8-11.6c2.3,0,4.2,1,5.2,2.7l0-0.4l0.2-1.1
			c0-0.2,0.2-0.4,0.3-0.4h2.4c0.1,0,0.2,0.1,0.3,0.2c0.1,0.1,0.1,0.2,0.1,0.3l-2.4,12.3c-0.1,0.4-0.1,0.7-0.1,1
			c0,1.1,0.3,1.3,1.1,1.3c1.4,0,5.8-0.6,5.8-6.1c0-7.8-5-12.8-12.8-12.8c-7.1,0-12.8,5.8-12.8,12.8s5.8,12.8,12.8,12.8
			c2.9,0,5.8-1,8.1-2.9c0.3-0.2,0.7-0.2,0.9,0.1l0.8,1c0.1,0.1,0.2,0.3,0.1,0.5c0,0.2-0.1,0.3-0.2,0.4c-2.7,2.2-6.2,3.5-9.7,3.5
			c-8.5,0-15.4-6.9-15.4-15.4s6.9-15.4,15.4-15.4c9.2,0,15.4,6.2,15.4,15.4C46.6,37.8,42.1,40.2,38.3,40.3z M31.2,24.6
			c-3.3,0-6.9,3.3-6.9,8.7c0,3,1.5,4.7,4.1,4.7c4,0,6.8-4.6,6.8-8.7C35.3,26.3,33.8,24.6,31.2,24.6z"/>
	</g>
</g>
<g id="XMLID_2_">
</g>
<g id="XMLID_6_">
</g>
<g id="XMLID_7_">
</g>
<g id="XMLID_8_">
</g>
<g id="XMLID_9_">
</g>
<g id="XMLID_10_">
</g>
</svg>
