<?xml version="1.0" encoding="utf-8"?>
<!-- Generator: Adobe Illustrator 19.0.0, SVG Export Plug-In . SVG Version: 6.00 Build 0)  -->
<svg version="1.1" id="Capa_1" xmlns="http://www.w3.org/2000/svg" xmlns:xlink="http://www.w3.org/1999/xlink" x="0px" y="0px"
	 viewBox="0 0 62.4 62.4" style="enable-background:new 0 0 62.4 62.4;" xml:space="preserve">
<style type="text/css">
	.st0{fill:#97812C;}
	.st1{fill:#FFFFFF;}
</style>
<g>
	<circle id="XMLID_1_" class="st0" cx="31.2" cy="31.2" r="31.2"/>
	<g id="fa-user_7_">
		<path id="XMLID_3_" class="st1" d="M33.4,45.4v3.5c0,0.4-0.3,0.6-0.6,0.6H30c-0.3,0-0.6-0.3-0.6-0.6v-3.5
			c-4.7-0.7-7.3-3.5-7.4-3.6c-0.2-0.2-0.2-0.6,0-0.8l2.1-2.7c0.1-0.1,0.3-0.2,0.5-0.2c0.2,0,0.4,0,0.5,0.2c0,0,2.8,2.7,6.4,2.7
			c2,0,4.1-1,4.1-3.3c0-1.9-2.4-2.9-5.1-3.9c-3.6-1.4-8.1-3.2-8.1-8.3c0-3.7,2.9-6.7,7.1-7.5v-3.6c0-0.4,0.3-0.6,0.6-0.6h2.7
			c0.4,0,0.6,0.3,0.6,0.6v3.5c4.1,0.5,6.2,2.7,6.3,2.7c0.2,0.2,0.2,0.5,0.1,0.8l-1.6,2.9c-0.1,0.2-0.3,0.3-0.5,0.3
			c-0.2,0-0.4,0-0.5-0.1c0,0-2.4-2.2-5.4-2.2c-2.5,0-4.3,1.3-4.3,3.1c0,2.1,2.4,3.1,5.3,4.2c3.7,1.4,7.9,3,7.9,7.9
			C40.5,41.5,37.6,44.7,33.4,45.4z"/>
	</g>
</g>
<g id="XMLID_2_">
</g>
<g id="XMLID_5_">
</g>
<g id="XMLID_6_">
</g>
<g id="XMLID_7_">
</g>
<g id="XMLID_8_">
</g>
<g id="XMLID_9_">
</g>
</svg>
