<?xml version="1.0" encoding="utf-8"?>
<!-- Generator: Adobe Illustrator 19.0.0, SVG Export Plug-In . SVG Version: 6.00 Build 0)  -->
<svg version="1.1" id="Capa_1" xmlns="http://www.w3.org/2000/svg" xmlns:xlink="http://www.w3.org/1999/xlink" x="0px" y="0px"
	 viewBox="0 0 62.4 62.4" style="enable-background:new 0 0 62.4 62.4;" xml:space="preserve">
<style type="text/css">
	.st0{fill:#97812C;}
	.st1{fill:#FFFFFF;}
</style>
<g>
	<circle id="XMLID_1_" class="st0" cx="31.2" cy="31.2" r="31.2"/>
	<g id="fa-support_2_">
		<path id="XMLID_3_" class="st1" d="M40.2,43.7c0,1.6-1.4,3-3,3h-12c-1.6,0-3-1.4-3-3v-24c0-1.6,1.4-3,3-3h12c1.6,0,3,1.4,3,3V43.7
			z M37.9,23.4c0-0.4-0.4-0.8-0.8-0.8h-12c-0.4,0-0.8,0.4-0.8,0.8v16.5c0,0.4,0.4,0.8,0.8,0.8h12c0.4,0,0.8-0.4,0.8-0.8V23.4z
			 M33.1,19.7h-3.8c-0.2,0-0.4,0.2-0.4,0.4s0.2,0.4,0.4,0.4h3.8c0.2,0,0.4-0.2,0.4-0.4S33.3,19.7,33.1,19.7z M31.2,41.8
			c-1,0-1.9,0.8-1.9,1.9s0.8,1.9,1.9,1.9s1.9-0.8,1.9-1.9S32.2,41.8,31.2,41.8z"/>
	</g>
</g>
<g id="XMLID_2_">
</g>
<g id="XMLID_8_">
</g>
<g id="XMLID_9_">
</g>
<g id="XMLID_10_">
</g>
<g id="XMLID_11_">
</g>
<g id="XMLID_12_">
</g>
</svg>
