<?xml version="1.0" encoding="utf-8"?>
<!-- Generator: Adobe Illustrator 19.0.0, SVG Export Plug-In . SVG Version: 6.00 Build 0)  -->
<svg version="1.1" id="Capa_1" xmlns="http://www.w3.org/2000/svg" xmlns:xlink="http://www.w3.org/1999/xlink" x="0px" y="0px"
	 viewBox="0 0 62.4 62.4" style="enable-background:new 0 0 62.4 62.4;" xml:space="preserve">
<style type="text/css">
	.st0{fill:#97812C;}
	.st1{fill:#FFFFFF;}
</style>
<g>
	<circle id="XMLID_1_" class="st0" cx="31.2" cy="31.2" r="31.2"/>
	<g id="fa-user_2_">
		<path id="XMLID_3_" class="st1" d="M18.5,34.2h-2.7c-2,0-3.9-1-3.9-3.2c0-1.6-0.1-7.1,2.5-7.1c0.4,0,2.5,1.7,5.2,1.7
			c0.9,0,1.8-0.2,2.7-0.5c-0.1,0.4-0.1,0.9-0.1,1.3c0,1.8,0.6,3.6,1.6,5.1C21.7,31.7,19.9,32.6,18.5,34.2z M19.6,23.9
			c-2.8,0-5.1-2.3-5.1-5.1c0-2.8,2.3-5.1,5.1-5.1s5.1,2.3,5.1,5.1C24.8,21.6,22.5,23.9,19.6,23.9z M39.9,49.6H22.4
			c-3.2,0-5.3-1.9-5.3-5.2c0-4.5,1.1-11.5,6.9-11.5c0.7,0,3.2,2.8,7.2,2.8s6.5-2.8,7.2-2.8c5.9,0,6.9,7,6.9,11.5
			C45.3,47.6,43.1,49.6,39.9,49.6z M31.2,34.2c-4.2,0-7.7-3.4-7.7-7.7c0-4.2,3.4-7.7,7.7-7.7c4.2,0,7.7,3.4,7.7,7.7
			C38.9,30.7,35.4,34.2,31.2,34.2z M42.7,23.9c-2.8,0-5.1-2.3-5.1-5.1c0-2.8,2.3-5.1,5.1-5.1c2.8,0,5.1,2.3,5.1,5.1
			C47.9,21.6,45.5,23.9,42.7,23.9z M46.5,34.2h-2.7c-1.3-1.6-3.2-2.5-5.3-2.6c1-1.5,1.6-3.3,1.6-5.1c0-0.4,0-0.9-0.1-1.3
			c0.9,0.3,1.7,0.5,2.7,0.5c2.7,0,4.8-1.7,5.2-1.7c2.5,0,2.5,5.4,2.5,7.1C50.4,33.2,48.5,34.2,46.5,34.2z"/>
	</g>
</g>
<g id="XMLID_2_">
</g>
<g id="XMLID_10_">
</g>
<g id="XMLID_11_">
</g>
<g id="XMLID_12_">
</g>
<g id="XMLID_13_">
</g>
<g id="XMLID_14_">
</g>
</svg>
