<?xml version="1.0" encoding="utf-8"?>
<!-- Generator: Adobe Illustrator 19.0.0, SVG Export Plug-In . SVG Version: 6.00 Build 0)  -->
<svg version="1.1" id="Capa_1" xmlns="http://www.w3.org/2000/svg" xmlns:xlink="http://www.w3.org/1999/xlink" x="0px" y="0px"
	 viewBox="0 0 62.4 62.4" style="enable-background:new 0 0 62.4 62.4;" xml:space="preserve">
<style type="text/css">
	.st0{fill:#9B842A;}
	.st1{fill:#FFFFFF;}
</style>
<g>
	<circle id="XMLID_53_" class="st0" cx="31.2" cy="31.2" r="31.2"/>
	<g id="fa-user">
		<path id="XMLID_55_" class="st1" d="M44,41.7c0,1.5-0.4,2.7-1.3,3.7s-1.8,1.6-3,1.6H22.6c-1.2,0-2.2-0.5-3-1.6s-1.3-2.3-1.3-3.7
			c0-1.1,0.1-2.2,0.2-3.2c0.1-1,0.3-2,0.6-3c0.3-1,0.7-1.9,1.2-2.6c0.5-0.7,1.1-1.3,1.9-1.8c0.8-0.5,1.7-0.7,2.7-0.7
			c1.8,1.7,3.8,2.6,6.3,2.6s4.5-0.9,6.3-2.6c1,0,1.9,0.2,2.7,0.7c0.8,0.5,1.4,1.1,1.9,1.8c0.5,0.7,0.9,1.6,1.2,2.6
			c0.3,1,0.5,2,0.6,3C44,39.5,44,40.5,44,41.7z M36.6,18.5c1.5,1.5,2.3,3.3,2.3,5.4s-0.8,3.9-2.3,5.4s-3.3,2.3-5.4,2.3
			c-2.1,0-3.9-0.8-5.4-2.3s-2.3-3.3-2.3-5.4s0.8-3.9,2.3-5.4s3.3-2.3,5.4-2.3C33.3,16.2,35.1,17,36.6,18.5z"/>
	</g>
</g>
<g id="XMLID_54_">
</g>
<g id="XMLID_58_">
</g>
<g id="XMLID_59_">
</g>
<g id="XMLID_60_">
</g>
<g id="XMLID_61_">
</g>
<g id="XMLID_62_">
</g>
<g id="XMLID_63_">
</g>
<g id="XMLID_64_">
</g>
<g id="XMLID_65_">
</g>
<g id="XMLID_66_">
</g>
<g id="XMLID_67_">
</g>
<g id="XMLID_68_">
</g>
<g id="XMLID_69_">
</g>
<g id="XMLID_70_">
</g>
<g id="XMLID_71_">
</g>
</svg>
