<?xml version="1.0" encoding="utf-8"?>
<!-- Generator: Adobe Illustrator 19.0.0, SVG Export Plug-In . SVG Version: 6.00 Build 0)  -->
<svg version="1.1" id="Capa_1" xmlns="http://www.w3.org/2000/svg" xmlns:xlink="http://www.w3.org/1999/xlink" x="0px" y="0px"
	 viewBox="0 0 62.4 62.4" style="enable-background:new 0 0 62.4 62.4;" xml:space="preserve">
<style type="text/css">
	.st0{fill:#9B842A;}
	.st1{fill:#FFFFFF;}
</style>
<g>
	<circle id="XMLID_53_" class="st0" cx="31.2" cy="31.1" r="31.2"/>
	<g id="fa-cogs">
		<path id="XMLID_55_" class="st1" d="M37.6,29.8v3.7c0,0.1,0,0.3-0.1,0.4s-0.2,0.2-0.3,0.2L34,34.6c-0.1,0.5-0.4,1-0.6,1.5
			c0.5,0.6,1.1,1.4,1.8,2.3c0.1,0.1,0.1,0.3,0.1,0.4c0,0.2,0,0.3-0.1,0.4c-0.3,0.4-0.9,1-1.7,1.8c-0.8,0.8-1.3,1.2-1.6,1.2
			c-0.1,0-0.3,0-0.4-0.1l-2.3-1.8c-0.5,0.3-1,0.5-1.5,0.6c-0.1,1.4-0.3,2.5-0.5,3.1c-0.1,0.3-0.3,0.5-0.6,0.5h-3.7
			c-0.1,0-0.3-0.1-0.4-0.2c-0.1-0.1-0.2-0.2-0.2-0.4l-0.5-3.1c-0.5-0.1-1-0.3-1.5-0.6L18,42c-0.1,0.1-0.2,0.1-0.4,0.1
			c-0.1,0-0.3-0.1-0.4-0.2c-1.9-1.8-2.9-2.8-2.9-3.2c0-0.1,0-0.2,0.1-0.4c0.1-0.2,0.4-0.5,0.8-1.1c0.4-0.5,0.7-0.9,0.9-1.2
			c-0.3-0.6-0.5-1.1-0.7-1.6l-3-0.5c-0.1,0-0.2-0.1-0.3-0.2C12,33.7,12,33.6,12,33.4v-3.7c0-0.1,0-0.3,0.1-0.4s0.2-0.2,0.3-0.2
			l3.1-0.5c0.1-0.5,0.4-1,0.6-1.5c-0.5-0.6-1.1-1.4-1.8-2.3c-0.1-0.1-0.1-0.3-0.1-0.4c0-0.2,0-0.3,0.1-0.4c0.3-0.4,0.8-1,1.6-1.8
			c0.8-0.8,1.3-1.2,1.6-1.2c0.1,0,0.3,0,0.4,0.1l2.3,1.8c0.5-0.2,1-0.5,1.5-0.6c0.1-1.4,0.3-2.5,0.5-3.1c0.1-0.3,0.3-0.5,0.6-0.5
			h3.7c0.1,0,0.3,0.1,0.4,0.2s0.2,0.2,0.2,0.4l0.5,3.1c0.5,0.1,1,0.3,1.5,0.6l2.4-1.8c0.1-0.1,0.2-0.1,0.4-0.1
			c0.1,0,0.3,0.1,0.4,0.2c1.9,1.8,2.9,2.8,2.9,3.2c0,0.1,0,0.2-0.1,0.4c-0.2,0.2-0.4,0.6-0.8,1.1c-0.4,0.5-0.7,0.9-0.9,1.2
			c0.3,0.6,0.5,1.2,0.7,1.6l3,0.5c0.1,0,0.2,0.1,0.3,0.2S37.6,29.6,37.6,29.8z M28.4,35.2c1-1,1.5-2.2,1.5-3.6S29.4,29,28.4,28
			s-2.2-1.5-3.6-1.5S22.2,27,21.2,28s-1.5,2.2-1.5,3.6s0.5,2.6,1.5,3.6s2.2,1.5,3.6,1.5S27.4,36.2,28.4,35.2z M50.4,19.9v2.8
			c0,0.2-1,0.4-3,0.6c-0.2,0.4-0.4,0.7-0.6,1c0.7,1.5,1,2.4,1,2.8c0,0.1,0,0.1-0.1,0.1c-1.6,0.9-2.5,1.4-2.5,1.4
			c-0.1,0-0.4-0.3-0.9-0.9s-0.9-1.1-1-1.4c-0.3,0-0.5,0-0.6,0c-0.1,0-0.3,0-0.6,0c-0.2,0.3-0.5,0.7-1,1.4c-0.5,0.6-0.8,0.9-0.9,0.9
			c0,0-0.9-0.5-2.5-1.4c-0.1,0-0.1-0.1-0.1-0.1c0-0.3,0.3-1.3,1-2.8c-0.2-0.3-0.4-0.7-0.6-1c-2-0.2-3-0.4-3-0.6v-2.8
			c0-0.2,1-0.4,3-0.6c0.2-0.4,0.4-0.7,0.6-1c-0.7-1.5-1-2.4-1-2.8c0-0.1,0-0.1,0.1-0.1c0.1,0,0.3-0.2,0.7-0.4
			c0.4-0.2,0.8-0.5,1.2-0.7c0.4-0.2,0.6-0.3,0.6-0.3c0.1,0,0.4,0.3,0.9,0.9c0.5,0.6,0.9,1.1,1,1.4c0.3,0,0.5,0,0.6,0
			c0.1,0,0.3,0,0.6,0c0.7-0.9,1.3-1.7,1.8-2.2l0.1,0c0.1,0,0.9,0.5,2.5,1.4c0.1,0,0.1,0.1,0.1,0.1c0,0.3-0.3,1.3-1,2.8
			c0.2,0.3,0.4,0.7,0.6,1C49.4,19.5,50.4,19.7,50.4,19.9z M50.4,40.5v2.8c0,0.2-1,0.4-3,0.6c-0.2,0.4-0.4,0.7-0.6,1
			c0.7,1.5,1,2.4,1,2.8c0,0.1,0,0.1-0.1,0.1c-1.6,0.9-2.5,1.4-2.5,1.4c-0.1,0-0.4-0.3-0.9-0.9s-0.9-1.1-1-1.4c-0.3,0-0.5,0-0.6,0
			c-0.1,0-0.3,0-0.6,0c-0.2,0.3-0.5,0.7-1,1.4c-0.5,0.6-0.8,0.9-0.9,0.9c0,0-0.9-0.5-2.5-1.4c-0.1,0-0.1-0.1-0.1-0.1
			c0-0.3,0.3-1.3,1-2.8c-0.2-0.3-0.4-0.7-0.6-1c-2-0.2-3-0.4-3-0.6v-2.8c0-0.2,1-0.4,3-0.6c0.2-0.4,0.4-0.7,0.6-1
			c-0.7-1.5-1-2.4-1-2.8c0-0.1,0-0.1,0.1-0.1c0.1,0,0.3-0.2,0.7-0.4c0.4-0.2,0.8-0.5,1.2-0.7c0.4-0.2,0.6-0.3,0.6-0.3
			c0.1,0,0.4,0.3,0.9,0.9c0.5,0.6,0.9,1.1,1,1.4c0.3,0,0.5,0,0.6,0c0.1,0,0.3,0,0.6,0c0.7-0.9,1.3-1.7,1.8-2.2l0.1,0
			c0.1,0,0.9,0.5,2.5,1.4c0.1,0,0.1,0.1,0.1,0.1c0,0.3-0.3,1.3-1,2.8c0.2,0.3,0.4,0.7,0.6,1C49.4,40,50.4,40.2,50.4,40.5z
			 M45.3,21.3c0-0.7-0.3-1.3-0.8-1.8c-0.5-0.5-1.1-0.8-1.8-0.8c-0.7,0-1.3,0.3-1.8,0.8c-0.5,0.5-0.8,1.1-0.8,1.8
			c0,0.7,0.3,1.3,0.8,1.8s1.1,0.8,1.8,0.8c0.7,0,1.3-0.3,1.8-0.8S45.3,22,45.3,21.3z M45.3,41.9c0-0.7-0.3-1.3-0.8-1.8
			c-0.5-0.5-1.1-0.8-1.8-0.8c-0.7,0-1.3,0.3-1.8,0.8c-0.5,0.5-0.8,1.1-0.8,1.8c0,0.7,0.3,1.3,0.8,1.8s1.1,0.8,1.8,0.8
			c0.7,0,1.3-0.3,1.8-0.8S45.3,42.6,45.3,41.9z"/>
	</g>
</g>
<g id="XMLID_54_">
</g>
<g id="XMLID_62_">
</g>
<g id="XMLID_63_">
</g>
<g id="XMLID_64_">
</g>
<g id="XMLID_65_">
</g>
<g id="XMLID_66_">
</g>
<g id="XMLID_67_">
</g>
<g id="XMLID_68_">
</g>
<g id="XMLID_69_">
</g>
<g id="XMLID_70_">
</g>
<g id="XMLID_71_">
</g>
<g id="XMLID_72_">
</g>
<g id="XMLID_73_">
</g>
<g id="XMLID_74_">
</g>
<g id="XMLID_75_">
</g>
</svg>
