<?xml version="1.0" encoding="utf-8"?>
<!-- Generator: Adobe Illustrator 19.0.0, SVG Export Plug-In . SVG Version: 6.00 Build 0)  -->
<svg version="1.1" id="Capa_1" xmlns="http://www.w3.org/2000/svg" xmlns:xlink="http://www.w3.org/1999/xlink" x="0px" y="0px"
	 viewBox="0 0 62.4 62.4" style="enable-background:new 0 0 62.4 62.4;" xml:space="preserve">
<style type="text/css">
	.st0{fill:#97812C;}
	.st1{fill:#FFFFFF;}
</style>
<g>
	<circle id="XMLID_1_" class="st0" cx="31.2" cy="31.2" r="31.2"/>
	<g id="fa-user_8_">
		<path id="XMLID_3_" class="st1" d="M47.9,22.6c0,0.7-0.6,1.3-1.3,1.3H15.8c-0.7,0-1.3-0.6-1.3-1.3v-5.1c0-0.7,0.6-1.3,1.3-1.3
			h30.8c0.7,0,1.3,0.6,1.3,1.3V22.6z M46.6,45.7c0,0.7-0.6,1.3-1.3,1.3H17.1c-0.7,0-1.3-0.6-1.3-1.3V26.5c0-0.7,0.6-1.3,1.3-1.3
			h28.2c0.7,0,1.3,0.6,1.3,1.3V45.7z M33.8,29h-5.1c-0.7,0-1.3,0.6-1.3,1.3s0.6,1.3,1.3,1.3h5.1c0.7,0,1.3-0.6,1.3-1.3
			S34.5,29,33.8,29z"/>
	</g>
</g>
<g id="XMLID_2_">
</g>
<g id="XMLID_7_">
</g>
<g id="XMLID_8_">
</g>
<g id="XMLID_9_">
</g>
<g id="XMLID_10_">
</g>
<g id="XMLID_11_">
</g>
</svg>
