<?xml version="1.0" encoding="utf-8"?>
<!-- Generator: Adobe Illustrator 19.0.0, SVG Export Plug-In . SVG Version: 6.00 Build 0)  -->
<svg version="1.1" id="Capa_1" xmlns="http://www.w3.org/2000/svg" xmlns:xlink="http://www.w3.org/1999/xlink" x="0px" y="0px"
	 viewBox="0 0 62.4 62.4" style="enable-background:new 0 0 62.4 62.4;" xml:space="preserve">
<style type="text/css">
	.st0{fill:#97812C;}
	.st1{fill:#FFFFFF;}
</style>
<g>
	<circle id="XMLID_1_" class="st0" cx="31.2" cy="31.2" r="31.2"/>
	<g id="fa-user_9_">
		<path id="XMLID_3_" class="st1" d="M42.7,44.4H20.9c-4.9,0-9-4-9-9c0-3.6,2.1-6.7,5.2-8.1c0-0.3,0-0.6,0-0.9
			c0-5.7,4.6-10.3,10.3-10.3c4.3,0,8,2.6,9.5,6.4c0.9-0.8,2-1.2,3.3-1.2c2.8,0,5.1,2.3,5.1,5.1c0,1-0.3,2-0.8,2.8
			c3.4,0.8,6,3.8,6,7.5C50.4,41,47,44.4,42.7,44.4z"/>
	</g>
</g>
<g id="XMLID_2_">
</g>
<g id="XMLID_5_">
</g>
<g id="XMLID_6_">
</g>
<g id="XMLID_7_">
</g>
<g id="XMLID_8_">
</g>
<g id="XMLID_9_">
</g>
</svg>
