<?xml version="1.0" encoding="utf-8"?>
<!-- Generator: Adobe Illustrator 19.0.0, SVG Export Plug-In . SVG Version: 6.00 Build 0)  -->
<svg version="1.1" id="Capa_1" xmlns="http://www.w3.org/2000/svg" xmlns:xlink="http://www.w3.org/1999/xlink" x="0px" y="0px"
	 viewBox="0 0 62.4 62.4" style="enable-background:new 0 0 62.4 62.4;" xml:space="preserve">
<style type="text/css">
	.st0{fill:#97812C;}
	.st1{fill:#FFFFFF;}
</style>
<g>
	<circle id="XMLID_1_" class="st0" cx="31.2" cy="31.2" r="31.2"/>
	<g id="fa-user_12_">
		<path id="XMLID_3_" class="st1" d="M49.1,31.6c0,9.9-8,18-18,18c-9.9,0-18-8-18-18s8-18,18-18C41.1,13.7,49.1,21.7,49.1,31.6z
			 M21.5,34.9c-0.4-1.1-0.6-2.2-0.6-3.3c0-1.2,0.2-2.3,0.6-3.3l-3.9-3.9c-1.1,2.2-1.8,4.6-1.8,7.2s0.7,5.1,1.8,7.2L21.5,34.9z
			 M38.9,31.6c0-4.2-3.4-7.7-7.7-7.7s-7.7,3.4-7.7,7.7c0,4.2,3.4,7.7,7.7,7.7S38.9,35.9,38.9,31.6z M24,18l3.9,3.9
			c1.1-0.4,2.2-0.6,3.3-0.6c1.2,0,2.3,0.2,3.3,0.6l3.9-3.9c-2.2-1.1-4.6-1.8-7.2-1.8C28.6,16.2,26.1,16.9,24,18z M38.4,45.2
			l-3.9-3.9c-1.1,0.4-2.2,0.6-3.3,0.6c-1.2,0-2.3-0.2-3.3-0.6L24,45.2c2.2,1.1,4.6,1.8,7.2,1.8C33.8,47,36.3,46.3,38.4,45.2z
			 M44.8,38.8c1.1-2.2,1.8-4.6,1.8-7.2s-0.7-5.1-1.8-7.2l-3.9,3.9c0.4,1.1,0.6,2.2,0.6,3.3s-0.2,2.3-0.6,3.3L44.8,38.8z"/>
	</g>
</g>
<g id="XMLID_2_">
</g>
<g id="XMLID_10_">
</g>
<g id="XMLID_11_">
</g>
<g id="XMLID_12_">
</g>
<g id="XMLID_13_">
</g>
<g id="XMLID_14_">
</g>
</svg>
