<?xml version="1.0" encoding="utf-8"?>
<!-- Generator: Adobe Illustrator 19.0.0, SVG Export Plug-In . SVG Version: 6.00 Build 0)  -->
<svg version="1.1" id="Capa_1" xmlns="http://www.w3.org/2000/svg" xmlns:xlink="http://www.w3.org/1999/xlink" x="0px" y="0px"
	 viewBox="0 0 62.4 62.4" style="enable-background:new 0 0 62.4 62.4;" xml:space="preserve">
<style type="text/css">
	.st0{fill:#97812C;}
	.st1{fill:#FFFFFF;}
</style>
<g>
	<circle id="XMLID_1_" class="st0" cx="31.2" cy="31.2" r="31.2"/>
	<g id="fa-user_5_">
		<path id="XMLID_3_" class="st1" d="M39.7,47H22.6c-2.3,0-4.3-2.4-4.3-5.3c0-5.3,1.3-11.4,6.6-11.4c1.6,1.6,3.8,2.6,6.3,2.6
			s4.6-1,6.3-2.6c5.2,0,6.6,6.1,6.6,11.4C44,44.6,42.1,47,39.7,47z M31.2,31.6c-4.2,0-7.7-3.4-7.7-7.7c0-4.2,3.4-7.7,7.7-7.7
			c4.2,0,7.7,3.4,7.7,7.7C38.9,28.2,35.4,31.6,31.2,31.6z"/>
	</g>
</g>
<g id="XMLID_2_">
</g>
<g id="XMLID_6_">
</g>
<g id="XMLID_7_">
</g>
<g id="XMLID_8_">
</g>
<g id="XMLID_9_">
</g>
<g id="XMLID_10_">
</g>
</svg>
