<?xml version="1.0" encoding="utf-8"?>
<!-- Generator: Adobe Illustrator 19.0.0, SVG Export Plug-In . SVG Version: 6.00 Build 0)  -->
<svg version="1.1" id="Layer_1" xmlns="http://www.w3.org/2000/svg" xmlns:xlink="http://www.w3.org/1999/xlink" x="0px" y="0px"
	 viewBox="-254 171 431 217" style="enable-background:new -254 171 431 217;" xml:space="preserve">
<style type="text/css">
	.st0{fill:#404042;}
	.st1{fill:#FFFFFF;}
	.st2{fill:#F6F6F6;}
	.st3{fill:none;stroke:#404042;stroke-width:2.2151;stroke-miterlimit:10;}
	.st4{fill:#A6A8AB;}
	.st5{fill:#6E6F71;}
	.st6{fill:#382458;}
	.st7{fill:#633288;}
	.st8{fill:#D91D5D;}
	.st9{fill:#8EC044;}
	.st10{fill:#28AEE5;}
</style>
<path class="st0" d="M93.2,358.4c0,2.7-2.2,4.9-4.9,4.9H-34.8c-2.7,0-4.9-2.2-4.9-4.9V195.3c0-2.7,2.2-4.9,4.9-4.9H88.3
	c2.7,0,4.9,2.2,4.9,4.9L93.2,358.4L93.2,358.4z"/>
<circle class="st1" cx="26.8" cy="355.4" r="4"/>
<circle class="st1" cx="26.9" cy="198.2" r="1"/>
<rect x="-26.4" y="205.9" class="st2" width="106.5" height="141.6"/>
<g>
	<path class="st0" d="M172.9,359c0,2.3-1.9,4.2-4.2,4.2h-55.6c-2.3,0-4.2-1.9-4.2-4.2v-90.2c0-2.3,1.9-4.2,4.2-4.2h55.6
		c2.3,0,4.2,1.9,4.2,4.2V359z"/>
</g>
<circle class="st1" cx="140.9" cy="356.1" r="3.3"/>
<rect x="115.4" y="277.6" class="st2" width="51.1" height="71.3"/>
<g>
	<path class="st1" d="M149.3,271.7c0,0.9-1.3,1.7-2.8,1.7h-11.2c-1.5,0-2.8-0.8-2.8-1.7c0-0.9,1.3-1.7,2.8-1.7h11.2
		C148.1,270,149.3,270.8,149.3,271.7z"/>
</g>
<g>
	<path class="st0" d="M-185.4,359.1c0,2.3-1.9,4.2-4.2,4.2h-54.8c-2.3,0-4.2-1.9-4.2-4.2v-88.9c0-2.3,1.9-4.2,4.2-4.2h54.8
		c2.3,0,4.2,1.9,4.2,4.2V359.1z"/>
</g>
<rect x="-242.2" y="273.8" class="st2" width="50.4" height="57"/>
<rect x="-242.1" y="331.6" class="st1" width="50" height="24.3"/>
<line class="st3" x1="-243.1" y1="348.6" x2="-189.9" y2="348.6"/>
<line class="st3" x1="-243.1" y1="340.6" x2="-189.9" y2="340.6"/>
<line class="st3" x1="-243.1" y1="332" x2="-189.9" y2="332"/>
<line class="st3" x1="-232.9" y1="332.7" x2="-232.9" y2="356"/>
<line class="st3" x1="-222.1" y1="332.7" x2="-222.1" y2="356"/>
<line class="st3" x1="-200.6" y1="332.7" x2="-200.6" y2="356"/>
<line class="st3" x1="-211.4" y1="332.7" x2="-211.4" y2="356"/>
<path class="st0" d="M-56.5,359.1c0,2.3-1.9,4.2-4.2,4.2h-105.9c-2.3,0-4.2-1.9-4.2-4.2V218.7c0-2.3,1.9-4.2,4.2-4.2h105.9
	c2.3,0,4.2,1.9,4.2,4.2V359.1z"/>
<rect x="-159.3" y="227.8" class="st2" width="91.7" height="111.8"/>
<rect x="-123.1" y="344.5" class="st1" width="16.4" height="10.3"/>
<circle class="st1" cx="-100.1" cy="349.7" r="2.9"/>
<circle class="st1" cx="-129.8" cy="349.7" r="2.9"/>
<rect x="-16.6" y="221.5" class="st4" width="21.6" height="3.6"/>
<rect x="-16.6" y="308.1" class="st5" width="24.3" height="3.6"/>
<rect x="-153" y="245.5" class="st4" width="24.3" height="3.6"/>
<rect x="-153" y="253.4" class="st4" width="24.3" height="3.6"/>
<rect x="-153" y="261.4" class="st4" width="77.8" height="3.6"/>
<rect x="-153" y="269.4" class="st4" width="77.8" height="3.6"/>
<rect x="-153" y="277.3" class="st4" width="77.8" height="3.6"/>
<rect x="-153" y="285.3" class="st4" width="77.8" height="3.6"/>
<rect x="-153" y="293.2" class="st4" width="77.8" height="3.6"/>
<rect x="-153" y="301.2" class="st4" width="77.8" height="3.6"/>
<rect x="-153" y="309.2" class="st4" width="77.8" height="3.6"/>
<rect x="-153" y="317.1" class="st4" width="77.8" height="3.6"/>
<rect x="-16.6" y="298" class="st6" width="16" height="3.5"/>
<rect x="-16.6" y="318.2" class="st5" width="24.3" height="3.6"/>
<rect x="-16.6" y="328.3" class="st5" width="24.3" height="3.5"/>
<rect x="14.6" y="308.1" class="st5" width="24.3" height="3.6"/>
<rect x="14.6" y="298" class="st6" width="8.8" height="3.5"/>
<rect x="14.6" y="318.2" class="st5" width="24.3" height="3.6"/>
<rect x="14.6" y="328.3" class="st5" width="24.3" height="3.5"/>
<rect x="45.7" y="308.1" class="st5" width="24.3" height="3.6"/>
<rect x="45.7" y="298" class="st6" width="17" height="3.5"/>
<rect x="45.7" y="318.2" class="st5" width="24.3" height="3.6"/>
<rect x="45.7" y="328.3" class="st5" width="24.3" height="3.5"/>
<rect x="56.5" y="221.5" class="st4" width="13.7" height="3.6"/>
<rect x="39.2" y="221.5" class="st4" width="13.7" height="3.6"/>
<rect x="21.8" y="221.5" class="st4" width="13.7" height="3.6"/>
<rect x="-16.6" y="238.6" class="st7" width="86.8" height="47"/>
<polygon class="st6" points="-1.9,239.1 70.2,239.1 70.2,285.3 40.9,285.3 "/>
<circle class="st8" cx="126.9" cy="333.1" r="5"/>
<circle class="st9" cx="154.2" cy="333.1" r="5"/>
<g>
	<path class="st10" d="M-223.1,306.6v-10.4h-6.3c-1.8,0-3.3,1.5-3.3,3.3v10c0,1.8,1.5,3.3,3.3,3.3h1.7v5l5-5h8.3
		c1.8,0,3.3-1.5,3.3-3.3v-3c-0.1,0-0.2,0-0.3,0h-11.7V306.6z M-202.7,287.9h-15c-1.8,0-3.3,1.5-3.3,3.3v13.4h11.7l5,5v-5h1.7
		c1.8,0,3.3-1.5,3.3-3.3v-10C-199.4,289.4-200.9,287.9-202.7,287.9z"/>
</g>
<g>
	<path class="st0" d="M149.8,308.7c-4.1-1.5-5.4-2.8-5.4-5.5c0-1.6,1.3-1.1,1.8-4.1c0.2-1.2,1.3,0,1.6-2.8c0-1.1-0.6-1.4-0.6-1.4
		s0.3-1.7,0.4-2.9c0.1-1.6-0.9-5.7-6.6-5.7s-6.8,4.1-6.6,5.7c0.1,1.3,0.4,2.9,0.4,2.9s-0.6,0.3-0.6,1.4c0.2,2.8,1.3,1.6,1.6,2.8
		c0.6,3,1.8,2.4,1.8,4.1c0,2.7-1.3,4-5.4,5.5s-6.8,3-6.8,4.1c0,1,0,3.5,0,3.5h15.7h15.7c0,0,0-2.5,0-3.5
		C156.6,311.7,153.9,310.2,149.8,308.7z"/>
</g>
</svg>
