<?xml version="1.0" encoding="utf-8"?>
<!-- Generator: Adobe Illustrator 19.0.0, SVG Export Plug-In . SVG Version: 6.00 Build 0)  -->
<svg version="1.1" id="Capa_1" xmlns="http://www.w3.org/2000/svg" xmlns:xlink="http://www.w3.org/1999/xlink" x="0px" y="0px"
	 viewBox="0 0 62.4 62.4" style="enable-background:new 0 0 62.4 62.4;" xml:space="preserve">
<style type="text/css">
	.st0{fill:#97812C;}
	.st1{fill:#FFFFFF;}
</style>
<g>
	<circle id="XMLID_1_" class="st0" cx="31.2" cy="31.2" r="31.2"/>
	<g id="fa-user_10_">
		<path id="XMLID_3_" class="st1" d="M22.9,35c1.9,3.7,5.9,6,10.1,5.3l-4.6,9c-8.6-1.3-15.2-8.8-15.2-17.7c0-3.6,1.1-7,2.9-9.8
			L22.9,35z M40.2,16.1c3.1,1.8,5.5,4.4,7.1,7.5l-14.9-0.8c-4.2-0.2-8.2,2.1-9.6,6.1l-5.5-8.5c3.4-4.3,8.6-6.7,13.9-6.7
			C34.2,13.6,37.3,14.4,40.2,16.1z M37.2,31.6c0,3.3-2.7,6-6.1,6c-3.3,0-6.1-2.7-6.1-6s2.7-6.1,6.1-6.1
			C34.5,25.6,37.2,28.3,37.2,31.6z M40.2,47.2c-3.1,1.8-6.6,2.6-10,2.4l8.1-12.5c2.3-3.5,2.3-8.2-0.5-11.4l10.1-0.5
			C51.1,33.2,47.9,42.7,40.2,47.2z"/>
	</g>
</g>
<g id="XMLID_2_">
</g>
<g id="XMLID_8_">
</g>
<g id="XMLID_9_">
</g>
<g id="XMLID_10_">
</g>
<g id="XMLID_11_">
</g>
<g id="XMLID_12_">
</g>
</svg>
