<?xml version="1.0" encoding="utf-8"?>
<!-- Generator: Adobe Illustrator 19.0.0, SVG Export Plug-In . SVG Version: 6.00 Build 0)  -->
<svg version="1.1" id="Capa_1" xmlns="http://www.w3.org/2000/svg" xmlns:xlink="http://www.w3.org/1999/xlink" x="0px" y="0px"
	 viewBox="-374 251.8 220 58.2" style="enable-background:new -374 251.8 220 58.2;" xml:space="preserve">
<style type="text/css">
	.st0{display:none;fill:#050505;}
	.st1{fill:#A78718;}
	.st2{enable-background:new    ;}
	.st3{fill:#FFFFFF;}
</style>
<rect x="-374" y="251.8" class="st0" width="220" height="58.2"/>
<g id="XMLID_7_">
	<g id="XMLID_71_">
		<path id="XMLID_72_" class="st1" d="M-358.3,286.5h21.8c0.2,0,0.3-0.1,0.5-0.2c0.1-0.1,0.2-0.3,0.2-0.5v-14c0-0.2-0.1-0.3-0.2-0.5
			c-0.1-0.1-0.3-0.2-0.5-0.2h-21.8c-0.2,0-0.3,0.1-0.5,0.2c-0.1,0.1-0.2,0.3-0.2,0.5v14.1c0,0.2,0.1,0.3,0.2,0.5
			C-358.6,286.5-358.5,286.5-358.3,286.5z M-345.8,291.7h-3.2c-0.2,0-0.3,0.1-0.3,0.3s0.1,0.3,0.3,0.3h3.2c0.2,0,0.3-0.1,0.3-0.3
			S-345.6,291.7-345.8,291.7z M-323.4,270.1c0-2-1.1-3.9-2.9-4.9l-18.4-10.4c-1.8-1-3.9-1-5.6,0l-18.5,10.9c-1.7,1-2.8,2.9-2.8,4.9
			l0.1,21.2c0,2,1.1,3.9,2.9,4.9l18.5,10.4c1.8,1,3.9,1,5.6,0l18.4-10.8c1.7-1,2.8-2.9,2.8-4.9L-323.4,270.1z M-361.5,271.8
			c0-0.9,0.3-1.6,0.9-2.3c0.6-0.6,1.4-0.9,2.3-0.9h21.8c0.9,0,1.6,0.3,2.3,0.9c0.6,0.6,0.9,1.4,0.9,2.3v14.1c0,0.9-0.3,1.6-0.9,2.3
			c-0.6,0.6-1.4,0.9-2.3,0.9h-21.8c-0.9,0-1.6-0.3-2.3-0.9c-0.7-0.6-0.9-1.4-0.9-2.3V271.8z M-328.2,292.3c0,0.5-0.3,1-0.9,1.4
			c-0.6,0.4-1.4,0.6-2.3,0.6h-32c-0.9,0-1.6-0.2-2.3-0.6c-0.6-0.4-0.9-0.8-0.9-1.4v-1.9h3.2h32h3.2V292.3z"/>
	</g>
</g>
<g id="XMLID_14_">
	<g id="XMLID_259_" class="st2">
		<path class="st3" d="M-315.3,288.3l6.8,0c0.1,1.4,0.4,2.4,0.8,3.1s1.2,1,2.1,1c0.8,0,1.4-0.2,1.9-0.7s0.7-1,0.7-1.7
			c0-0.6-0.2-1.1-0.5-1.5s-1.1-0.9-2.2-1.4c-0.3-0.1-0.6-0.3-1.2-0.6c-2.7-1.3-4.6-2.5-5.7-3.6c-0.8-0.8-1.4-1.6-1.8-2.6
			s-0.6-2-0.6-3.1c0-2.5,0.8-4.4,2.5-5.9s3.9-2.2,6.8-2.2c3,0,5.3,0.7,6.9,2.1s2.4,3.4,2.4,6.1v0.5l-6.6,0c0-1.4-0.2-2.3-0.6-2.9
			s-1-0.9-1.9-0.9c-0.8,0-1.4,0.2-1.8,0.6s-0.7,1-0.7,1.6c0,1.2,1.1,2.3,3.4,3.3c0.3,0.1,0.6,0.3,0.7,0.3c3.1,1.4,5.2,2.7,6.2,4.1
			s1.6,3,1.6,5.2c0,2.7-0.8,4.9-2.5,6.4s-4.1,2.3-7.2,2.3c-3,0-5.3-0.8-6.9-2.3s-2.5-3.6-2.5-6.4V288.3z"/>
		<path class="st3" d="M-285.1,296.9h-7.5v-36.1h7.5V296.9z"/>
		<path class="st3" d="M-280.7,283.3c0-5.3,0.8-9,2.3-11.1s4.1-3.2,7.8-3.2c3.7,0,6.3,1.1,7.8,3.2s2.3,5.8,2.3,11.1
			c0,5.3-0.8,9-2.3,11.1s-4.1,3.2-7.8,3.2c-3.7,0-6.3-1.1-7.8-3.2S-280.7,288.6-280.7,283.3z M-273,283.3c0,3.8,0.2,6.2,0.5,7.2
			s1,1.4,1.9,1.4s1.6-0.5,1.9-1.4s0.5-3.3,0.5-7.2c0-3.9-0.2-6.3-0.5-7.2s-1-1.4-1.9-1.4s-1.6,0.5-1.9,1.5S-273,279.5-273,283.3z"/>
		<path class="st3" d="M-243.9,296.8c-0.9,0.2-1.7,0.3-2.4,0.4s-1.3,0.1-1.8,0.1c-1.5,0-2.8-0.2-3.8-0.7s-1.8-1.2-2.3-2.1
			c-0.3-0.6-0.6-1.4-0.7-2.4s-0.2-2.4-0.2-4.3v-3.4v-9.1h-2.9v-5.6h2.9v-7.5h7.6v7.5h3.6v5.6h-3.6v11.1c0,2.4,0.2,3.8,0.5,4.4
			s1,0.8,2,0.8c0.2,0,0.5,0,0.8-0.1c0.1,0,0.2,0,0.3,0V296.8z"/>
		<path class="st3" d="M-228.6,286.2h7.5c0,0.1,0,0.3,0,0.6s0,0.4,0,0.5c0,3.5-0.8,6.1-2.4,7.8s-4.1,2.6-7.3,2.6
			c-3.7,0-6.3-1.1-7.8-3.2s-2.3-5.8-2.3-11.1c0-5.3,0.8-9,2.3-11.1s4.1-3.2,7.8-3.2c3.3,0,5.8,0.8,7.3,2.5s2.3,4.3,2.3,7.9v0.5h-7.3
			v-0.8c0-1.6-0.2-2.8-0.5-3.5s-0.9-1-1.8-1c-1,0-1.6,0.5-1.9,1.4s-0.5,3.3-0.5,7.2c0,3.8,0.2,6.1,0.5,7.2s1,1.5,1.9,1.5
			c0.8,0,1.4-0.4,1.7-1.1s0.6-1.9,0.6-3.5c0-0.1,0-0.3,0-0.6S-228.6,286.3-228.6,286.2z"/>
		<path class="st3" d="M-217.2,283.3c0-5.3,0.8-9,2.3-11.1s4.1-3.2,7.8-3.2s6.3,1.1,7.8,3.2s2.3,5.8,2.3,11.1c0,5.3-0.8,9-2.3,11.1
			s-4.1,3.2-7.8,3.2c-3.7,0-6.3-1.1-7.8-3.2S-217.2,288.6-217.2,283.3z M-209.6,283.3c0,3.8,0.2,6.2,0.5,7.2s1,1.4,1.9,1.4
			s1.6-0.5,1.9-1.4s0.5-3.3,0.5-7.2c0-3.9-0.2-6.3-0.5-7.2s-1-1.4-1.9-1.4s-1.6,0.5-1.9,1.5S-209.6,279.5-209.6,283.3z"/>
		<path class="st3" d="M-192.8,296.9v-27.1h7v3.8c0.8-1.4,1.7-2.4,2.7-3.1s2.1-1.1,3.4-1.2v8.6c-0.4-0.1-0.8-0.2-1.2-0.2
			s-0.7-0.1-1-0.1c-1.2,0-2.1,0.4-2.5,1.3s-0.7,2.5-0.7,5v13H-192.8z"/>
		<path class="st3" d="M-164,287.3h7.1v0.7c0,3.2-0.8,5.6-2.5,7.2s-4.1,2.4-7.4,2.4c-1.7,0-3.2-0.2-4.5-0.7s-2.4-1.1-3.1-1.9
			c-0.8-1-1.4-2.2-1.8-3.8s-0.5-4.1-0.5-7.6c0-3.8,0.2-6.5,0.6-8s1-2.8,1.9-3.8c0.9-0.9,1.9-1.6,3.3-2.1s2.9-0.7,4.6-0.7
			c1.8,0,3.3,0.3,4.6,0.8s2.4,1.3,3.2,2.3c0.7,0.8,1.2,1.9,1.5,3s0.4,3.2,0.4,6v3.3H-169c0,0.1,0,0.2,0,0.3
			c-0.1,1.1-0.1,1.9-0.1,2.4c0,1.9,0.2,3.2,0.6,4s1.1,1.1,2.1,1.1c0.9,0,1.5-0.3,1.9-0.9s0.7-1.4,0.7-2.6c0-0.2,0-0.6-0.1-1.1
			C-163.9,287.5-164,287.4-164,287.3z M-168.9,279.6h5.1c0,0,0-0.1,0-0.1c0.1-0.7,0.1-1.2,0.1-1.5c0-1.3-0.2-2.3-0.6-2.9
			s-1.1-0.9-2-0.9c-0.9,0-1.6,0.3-2,0.9s-0.6,1.6-0.6,3.1c0,0.4,0,0.7,0,0.9S-168.9,279.5-168.9,279.6z"/>
	</g>
</g>
</svg>
